<svg width="263" height="201" viewBox="0 0 263 201" fill="none" xmlns="http://www.w3.org/2000/svg">
<g clip-path="url(#clip0_69_797)">
<path d="M21.6976 155.779C30.2584 162.37 40.2279 167.664 50.6308 170.798C57.4578 172.85 64.6098 174.039 72.087 174.363C80.5394 174.687 89.1002 173.823 97.2275 171.662C99.9366 170.906 102.537 170.149 105.138 169.177L100.153 163.774L91.2674 154.158H75.3379C55.0738 154.158 36.3268 145.622 22.4561 131.036C9.23569 116.989 1 97.7566 1 76.579C1 55.4014 9.23569 36.1688 22.4561 22.1224C36.0017 7.86 54.6403 -1 75.3379 -1C96.0355 -1 114.674 7.86 128.22 22.1224C137.756 32.279 144.691 45.1368 147.834 59.5073H226.614C224.555 54.321 221.63 49.5668 217.729 45.461C212.961 40.4907 207.109 36.709 200.499 34.7641L208.951 1.70122C221.846 5.26683 233.441 12.5061 242.544 22.2305C255.873 36.4929 263.35 54.6451 263.892 74.0939C264.108 80.5768 263.892 87.1678 263.892 93.6507H152.71C154.769 98.9451 157.803 103.699 161.596 107.697C168.748 115.26 178.717 120.015 189.554 120.015V154.158C147.183 154.158 115.324 118.61 115.216 77.3353C115.108 65.2339 111.532 54.429 103.188 45.569C96.0355 38.0056 86.066 33.2515 75.2295 33.2515C64.2847 33.2515 54.4236 38.0056 47.2715 45.569C39.7944 53.4566 35.2431 64.4775 35.2431 76.687C35.2431 88.8966 39.9028 99.9175 47.2715 107.805C54.6403 115.585 64.5015 120.123 75.2295 120.123H106.005L125.185 140.76L145.45 162.586C150.109 167.664 151.301 175.228 148.267 181.602C146.75 184.52 144.691 186.789 141.982 188.518C141.332 188.95 134.505 193.056 134.505 193.056C110.665 206.454 47.3799 204.185 21.6976 155.887V155.779Z" fill="url(#paint0_linear_69_797)"/>
<path d="M189.771 33.2513C186.195 33.2513 182.835 33.6835 179.584 34.656C176.225 35.6284 173.083 37.033 170.048 38.8699L152.168 9.69669C157.912 6.23913 163.98 3.53791 170.265 1.80913C176.659 -0.0276996 183.161 -0.89209 189.771 -0.89209V33.3594V33.2513Z" fill="#D64646"/>
</g>
<defs>
<linearGradient id="paint0_linear_69_797" x1="1.10836" y1="99.4853" x2="264.108" y2="99.4853" gradientUnits="userSpaceOnUse">
<stop stop-color="#336699"/>
<stop offset="1" stop-color="#33CC99"/>
</linearGradient>
<clipPath id="clip0_69_797">
<rect width="263" height="201" fill="white"/>
</clipPath>
</defs>
</svg>
