<svg width="160" height="41" viewBox="0 0 160 41" fill="none" xmlns="http://www.w3.org/2000/svg">
<path d="M0 2.66899V0H5.33799V5.35287H0V2.66899ZM84.8606 15.3569L81.5271 11.0705C83.5559 9.34891 86.1337 8.3178 88.9422 8.3178C92.2236 8.3178 95.1904 9.72302 97.3345 11.9974C99.4358 14.2272 100.735 17.2907 100.735 20.6614C100.735 24.0321 99.4358 27.0975 97.3345 29.3254C95.2332 31.5551 92.3408 32.9492 89.1339 33.0032H88.7505C85.5455 32.9492 82.6513 31.5551 80.55 29.3254C77.5069 26.1036 77.2035 22.5654 77.1551 20.5051C77.1067 18.4447 76.3213 16.8962 75.2343 15.7124C74.1455 14.5287 72.5225 13.7526 70.7916 13.7526C69.0607 13.7526 67.4898 14.5008 66.3489 15.7124C65.1651 16.9669 64.4337 18.7164 64.4337 20.6614C64.4337 22.6064 65.1651 24.3559 66.3489 25.6104C67.4898 26.8202 69.0607 27.5703 70.7916 27.5703H75.6736L78.7111 30.8572L81.9236 34.3339C82.6904 35.1678 82.8467 36.3664 82.3628 37.364C82.227 37.6283 82.0855 37.8386 81.8789 38.0527C81.8417 38.0899 81.8045 38.1271 81.7654 38.1643C81.6407 38.2797 81.5067 38.3802 81.3671 38.4677C74.2758 43.1319 64.2252 38.4268 62.2933 33.2972C62.5985 33.5336 62.9112 33.757 63.2313 33.9654L63.2332 33.9617C64.3555 34.6969 65.5746 35.2739 66.8626 35.6591C67.9458 35.9848 69.0867 36.1784 70.2705 36.2231C70.4454 36.2305 70.6185 36.2324 70.7935 36.2324C71.9809 36.2324 73.146 36.0816 74.2609 35.7876C74.6853 35.6759 75.1059 35.5437 75.521 35.3893L74.7244 34.5275L73.3154 33.0013H70.7953C67.5866 33.0013 64.5993 31.6501 62.4068 29.3235C60.3055 27.0957 59.0063 24.0321 59.0063 20.6614C59.0063 17.2907 60.3055 14.2272 62.4068 11.9993C64.5491 9.72674 67.5158 8.32152 70.7953 8.32152C74.0767 8.32152 77.0416 9.72674 79.1839 11.9993C81.2852 14.2272 82.5862 17.2907 82.5862 20.6614C82.5862 22.6064 83.3176 24.3559 84.5014 25.6123C85.6423 26.8239 87.215 27.5721 88.9441 27.5721C90.675 27.5721 92.2459 26.8239 93.3887 25.6123C94.5724 24.3578 95.3039 22.6082 95.3039 20.6614C95.3039 18.7164 94.5724 16.9669 93.3887 15.7106C92.2478 14.4989 90.675 13.7507 88.9441 13.7507C87.39 13.7507 85.9643 14.3556 84.8624 15.3551L84.8606 15.3569ZM148.224 13.7935C146.497 13.7935 144.926 14.5417 143.787 15.7515C142.605 17.0041 141.874 18.7518 141.874 20.6949C141.874 22.638 142.605 24.3839 143.787 25.6383C144.926 26.8481 146.497 27.5963 148.224 27.5963C149.951 27.5963 151.522 26.8481 152.661 25.6383C153.843 24.3857 154.575 22.638 154.575 20.6949C154.575 18.7518 153.843 17.006 152.661 15.7515C151.52 14.5417 149.951 13.7935 148.224 13.7935ZM136.448 0.0297795H141.779V10.3819C143.632 9.10695 145.845 8.36805 148.224 8.36805C151.502 8.36805 154.463 9.77141 156.603 12.0421C158.701 14.2681 160 17.328 160 20.6949C160 24.0619 158.703 27.1217 156.603 29.3477C154.506 31.5738 151.617 32.9659 148.416 33.0199H148.032C144.831 32.9659 141.942 31.5738 139.845 29.3477C137.747 27.1217 136.448 24.0619 136.448 20.6949V0.0316408V0.0297795ZM122.396 13.8084C120.669 13.8084 119.098 14.5566 117.959 15.7664C116.777 17.019 116.045 18.7667 116.045 20.7098C116.045 22.6529 116.777 24.3987 117.959 25.6532C119.098 26.863 120.669 27.6112 122.396 27.6112C124.123 27.6112 125.694 26.863 126.833 25.6532C128.015 24.4006 128.746 22.6529 128.746 20.7098C128.746 18.7667 128.015 17.0209 126.833 15.7664C125.692 14.5566 124.123 13.8084 122.396 13.8084ZM134.172 20.7079V33.0013H128.841V31.0191C127.038 32.2587 124.894 32.992 122.588 33.0311H122.204C119.003 32.9771 116.114 31.5849 114.017 29.3589C111.919 27.1329 110.62 24.073 110.62 20.7061C110.62 17.3391 111.917 14.2793 114.017 12.0533C116.157 9.78258 119.118 8.37922 122.396 8.37922C125.673 8.37922 128.635 9.78258 130.775 12.0533C132.873 14.2793 134.172 17.3391 134.172 20.7061V20.7079ZM103.015 0.0446693H108.345V33.0013H103.015V0.0446693ZM51.3642 20.4827C51.3623 18.5675 50.6401 16.844 49.475 15.6082C48.349 14.4133 46.7986 13.6744 45.0918 13.6744C43.3851 13.6744 41.8347 14.4133 40.7087 15.6082C39.5435 16.844 38.8214 18.5675 38.8195 20.4827L38.8083 29.9973V33.0013H33.4704V8.31594H38.8083V10.2479C40.6212 9.02506 42.7765 8.31594 45.09 8.31594C48.3266 8.31594 51.2525 9.70254 53.3668 11.9453C55.4384 14.1416 56.7189 17.1623 56.7208 20.4827L56.7096 29.9675V32.9715H51.3716L51.3604 20.4827H51.3642ZM5.33799 33.0013H0V8.31594H5.33799V33.0013ZM11.0184 29.3217C8.91712 27.0919 7.61798 24.0284 7.61798 20.6577V17.9403H25.2605C24.9795 17.2275 24.5905 16.5686 24.1047 15.9897C24.0228 15.893 23.939 15.7999 23.8534 15.7068C22.7125 14.4952 21.1398 13.747 19.4107 13.747C18.8542 13.747 18.3107 13.8214 17.7933 13.9685C17.2703 14.1174 16.7622 14.3407 16.2838 14.6329L13.4604 10.0059C14.3612 9.45314 15.3272 9.03251 16.3285 8.74774C17.3373 8.46111 18.374 8.31407 19.4088 8.31407C22.6902 8.31407 25.657 9.7193 27.7992 11.9937C27.9872 12.1966 28.1677 12.3995 28.3446 12.6116C30.0457 14.6776 31.1048 17.341 31.1941 20.2519C31.1978 20.3878 31.1997 20.5218 31.1997 20.6558V23.3732H13.5553C13.8866 24.2182 14.3668 24.9739 14.9624 25.6067C16.1033 26.8183 17.676 27.5665 19.4051 27.5665V32.9994C16.1945 32.9994 13.2091 31.6482 11.0147 29.3198L11.0184 29.3217Z" fill="#373737"/>
</svg>
