<svg width="301" height="292" viewBox="0 0 301 292" fill="none" xmlns="http://www.w3.org/2000/svg">
<path fill-rule="evenodd" clip-rule="evenodd" d="M257.717 106.266L275.289 93.7151L281.982 63.5924L279.472 59.4087L264.411 54.3882L250.186 44.3473L238.472 48.5311L230.941 55.225L217.553 44.3473L220.064 33.4697H226.757L233.451 25.1023L229.268 16.7348H225.084L219.227 14.2246L231.778 10.0409L238.472 25.1023L227.594 35.1432L225.084 38.4901L226.757 41.0004L234.288 43.5106L236.798 35.9799L250.186 27.6125L266.921 44.3473L277.799 46.0208L286.166 50.2045L291.187 51.878L292.023 61.9189L287.003 69.4496L280.309 93.7151L276.125 102.919L259.39 112.96L255.207 118.817L253.533 114.634L251.86 122.164V135.552L253.533 145.593L259.39 156.471L266.921 160.655L281.146 153.124L280.309 177.389L288.676 185.757L293.697 194.961L300.391 199.981L299.554 205.002L292.86 220.9L279.472 243.492L276.962 244.329L272.778 253.533L260.227 262.737L258.554 266.084L240.145 261.9L225.084 271.105L217.553 281.145L210.023 284.492L207.512 279.472L204.165 272.778L197.472 273.615L192.451 276.125L188.267 276.962L184.92 279.472L184.084 277.799L181.573 268.594L178.226 266.921L175.716 268.594L168.186 266.084L170.696 263.574L176.553 265.247L185.757 260.227L188.267 261.064L189.104 266.084L189.941 270.268L193.288 271.105L207.512 263.574L210.023 264.411L213.37 271.105L218.39 271.941L223.411 266.084L237.635 260.227L236.798 256.88L246.003 256.043L256.043 257.717L266.084 248.513L265.248 240.982L266.921 225.92L272.778 219.227L276.962 208.349L280.309 189.104L278.635 181.573L271.942 172.369L264.411 166.512H259.39L248.513 153.961L246.839 144.756L249.35 131.369L246.003 123.001L243.492 120.491L246.003 113.797L251.023 106.266L250.186 98.7356V92.0417L254.37 90.3682L256.88 99.5723L261.901 106.266H257.717ZM252.696 107.103L249.35 103.756L248.513 112.96L252.696 107.103ZM256.88 162.328L249.35 153.961L246.003 148.103L245.166 149.777L247.676 155.634L254.37 164.002L257.717 162.328H256.88ZM268.595 167.348L275.289 174.042L277.799 164.002L276.125 161.491L269.431 168.185L268.595 167.348ZM289.513 203.328L283.656 187.43L279.472 186.594L277.799 205.839L271.105 224.247L266.921 228.431L265.248 240.145L266.921 246.002L274.452 240.145L290.35 203.328H289.513Z" fill="#D4AF37"/>
<path fill-rule="evenodd" clip-rule="evenodd" d="M19.2451 154.797L20.0818 140.573H22.5921L25.1023 134.716L22.5921 126.348L15.0614 120.491V115.471L11.7144 114.634L9.20417 97.8989L10.0409 90.3682L13.3879 87.0213L17.5716 80.3273L28.4493 79.4906L38.4902 82.0008L41.0004 86.1845L46.0209 82.0008L50.2046 78.6538L47.6943 71.1231L41.8371 76.1436L35.9799 74.4701L21.7553 73.6334L16.7349 68.6129L10.0409 71.1231L4.18371 75.3069L0 86.1845L1.67349 97.0622L7.53069 120.491L10.8777 123.001L10.0409 130.532L13.3879 135.552L15.0614 144.757L11.7144 154.797L13.3879 160.655L20.0818 170.696L33.4697 186.594L34.3065 192.451L32.633 198.308L37.6534 205.839L38.4902 213.369L41.8371 206.675L49.3678 209.186L52.7148 213.369V202.492L56.8985 199.145V194.961L56.0618 194.124L56.8985 189.104L51.0413 189.941L51.8781 195.798L48.5311 198.308L42.6739 197.471L41.0004 192.451L39.3269 184.083L33.4697 180.736L31.7962 176.553L24.2655 167.349L20.9186 161.491V157.308L19.2451 154.797ZM13.3879 76.9803L5.8572 87.858L6.69394 80.3273L13.3879 76.9803Z" fill="#D4AF37"/>
<path fill-rule="evenodd" clip-rule="evenodd" d="M103.756 261.9L107.103 251.86V247.676L108.777 241.819L115.471 236.798H124.675L128.858 237.635L133.042 235.125L139.736 228.431L140.573 230.941L131.369 240.982H127.185L123.001 246.839L117.144 248.513L110.45 254.37L107.103 264.411L102.083 267.758L90.3683 271.105L69.4497 274.452L65.266 278.635L62.7558 283.656L54.3883 286.166L49.3679 288.676L47.6944 285.329L46.0209 278.635L41.8372 283.656L39.327 291.186L38.4902 282.819L46.0209 274.452L45.1842 269.431L48.5311 266.084H50.2046L57.7353 262.737L56.0618 266.084L51.8781 269.431L49.3679 275.288L51.0414 284.492L59.4088 278.635L62.7558 274.452L69.4497 269.431L76.1437 270.268L80.3274 267.758L92.0418 266.084L97.899 265.247L104.593 261.9H103.756ZM118.818 240.145L113.797 240.982L112.124 244.329L111.287 249.349L119.654 245.166L123.838 240.982L119.654 240.145H118.818Z" fill="#D4AF37"/>
<path fill-rule="evenodd" clip-rule="evenodd" d="M105.43 26.7758L111.287 39.3269L108.777 41.0004L109.613 47.6943L117.981 51.8781H127.185L131.369 53.5515L134.716 52.7148L147.267 63.5924L146.43 61.0822L135.552 51.0413H131.369L128.859 47.6943H118.818L114.634 43.5106L116.307 38.4902L112.124 34.3065L108.777 24.2655L97.899 20.0818L85.3479 18.4083L79.4907 15.8981L71.96 14.2246L66.9396 10.8777L65.2661 5.02046L56.8987 3.34697L52.7149 0L49.368 4.18371L46.021 7.53068L51.0415 10.8777L47.6945 15.0614L46.8577 20.0818L51.0415 21.7553L54.3884 25.939L56.8987 24.2655L53.5517 20.0818L50.2047 17.5716L52.7149 11.7144L50.2047 6.69394L52.7149 1.67349L56.0619 5.8572L62.7559 7.53068L64.4293 14.2246L71.1233 19.2451L77.8172 18.4083L83.6744 20.0818L95.3888 21.7553L102.083 25.1023L105.43 26.7758Z" fill="#D4AF37"/>
</svg>
