<svg width="178" height="480" viewBox="0 0 178 480" fill="none" xmlns="http://www.w3.org/2000/svg">
<path fill-rule="evenodd" clip-rule="evenodd" d="M75.4339 186.533C77.3171 184.447 77.1994 171.093 79.2003 170.572C79.4357 170.467 80.8481 170.363 81.2012 170.885C81.3189 171.093 81.9074 172.449 81.4366 175.684C81.4366 180.274 80.0242 179.961 80.0242 184.864C80.0242 193.732 82.2605 200.304 82.1428 207.085L73.6684 207.607C73.1976 205.416 72.9622 204.164 73.0799 202.495C72.3737 202.391 72.256 202.391 71.4321 202.391C71.3144 203.851 71.5498 205.103 71.9029 207.711L65.5471 208.337L64.8409 199.365C77.0817 197.07 71.7852 197.8 77.9056 197.279C77.9056 197.279 78.2587 196.027 78.2587 195.401C73.9038 195.192 68.1365 196.966 64.8409 197.279C65.0763 192.584 65.194 186.533 66.371 182.047C67.3126 182.569 75.6693 186.533 75.6693 186.533H75.4339ZM74.2569 182.986C73.0799 184.447 67.3126 180.274 65.9002 178.605C63.3108 176.414 63.1931 176.518 61.3099 173.284C62.7223 171.511 64.7232 170.05 66.4887 168.589C68.3719 166.92 69.7843 165.46 72.4914 164.521C73.9038 166.19 75.3162 167.963 76.7286 169.633C76.7286 172.867 76.4932 179.961 74.1392 182.986H74.2569ZM86.1445 273.123C87.3215 254.762 87.4392 235.462 85.2029 217.935C84.026 209.172 82.0251 200.722 81.9074 191.958C81.7897 184.03 82.0251 182.569 83.2021 174.432C83.3198 173.701 82.3782 171.719 83.0844 170.78C83.6729 169.946 85.556 170.05 86.6153 169.841C88.7339 175.788 94.8543 184.968 96.0313 188.411C96.0313 188.516 96.3844 193.523 96.3844 193.94C92.3826 194.671 86.9684 195.088 83.4375 195.818C83.4375 196.236 83.5552 196.757 83.4375 196.966C88.4985 196.653 92.7357 195.297 96.6198 195.297L97.5614 202.182C95.0897 204.373 89.2047 203.643 85.9091 204.999C86.0268 205.625 85.9091 206.251 86.0268 206.981C89.5578 205.938 94.7366 204.373 97.9145 204.686C98.2676 209.902 101.21 221.587 100.386 225.342C98.503 226.177 91.6764 227.637 90.264 228.368C89.3224 229.098 89.6755 229.724 90.0286 230.35C92.9711 230.663 97.7968 228.472 101.092 227.742L101.799 239.948C98.1499 240.887 92.0295 239.635 88.4985 239.322C88.6162 240.156 88.0277 240.991 88.3808 241.408C91.6764 241.513 92.1472 243.286 101.681 242.556C101.21 247.981 101.092 253.406 100.386 258.622C99.9154 262.065 98.3853 279.591 99.2092 282.095C99.9154 281.887 100.504 282.095 101.092 281.887C100.975 278.965 100.857 268.324 101.916 259.978C102.623 253.927 103.093 248.398 103.211 242.347C107.566 241.93 113.333 241.826 116.982 242.869C119.336 250.276 114.51 277.401 117.453 283.66C118.159 283.556 118.512 283.973 119.218 283.556C118.747 281.782 119.1 262.378 119.336 257.787C119.571 252.675 119.807 247.981 119.218 243.078C122.396 243.182 123.455 243.599 124.632 244.016C125.809 246.103 125.221 261.647 125.221 265.194C125.456 275.105 126.28 278.861 126.398 288.146C124.044 287.624 90.6171 284.599 90.4994 284.495L85.4383 283.973C85.3206 278.339 86.0268 276.357 86.4976 273.019L86.1445 273.123ZM103.093 172.762C103.329 172.658 106.389 168.068 109.214 167.129L113.215 170.259C118.747 175.684 130.282 177.561 134.166 182.047C132.989 184.864 131.93 185.699 130.4 188.307C127.222 188.62 115.216 190.289 112.392 189.872C112.274 185.073 111.097 183.717 111.45 178.083C111.685 176.205 112.745 172.345 112.862 171.511C112.627 171.093 112.038 171.093 111.685 170.572C110.626 172.241 109.214 179.126 109.684 182.256C110.038 184.655 110.744 188.203 110.744 190.393C108.978 191.228 100.975 193.001 98.7384 193.001C98.2676 189.037 98.1499 188.828 97.7968 185.386C97.326 181.734 103.211 172.762 103.093 172.762ZM95.4428 182.152C93.795 179.544 91.9118 175.579 91.2056 172.554C89.2047 169.32 89.5578 169.841 88.3808 166.92C89.9109 165.773 90.0286 164.834 92.1472 163.582C97.326 160.869 95.2074 160.765 97.2083 159.513C98.2676 158.887 106.977 165.355 106.742 165.46C104.741 167.546 102.034 170.78 101.563 172.241C100.739 173.597 96.6198 180.169 95.4428 182.256V182.152ZM34.9452 197.487C34.4744 202.182 35.2983 211.467 35.8868 216.162C36.8284 224.299 38.0054 231.393 38.4762 240.156L40.3594 276.67C40.4771 279.487 39.7709 286.894 42.5956 288.146C46.1266 286.79 42.9487 284.808 42.7133 277.922C42.5956 273.645 42.2425 269.472 42.1248 265.09C41.7717 252.467 40.2417 228.472 37.8877 216.475C37.0638 212.51 37.1815 208.233 37.0638 204.269C36.9461 200.513 36.7107 189.976 38.2408 187.681C39.5355 188.098 42.2425 191.019 42.5956 192.376C46.0089 203.121 46.9505 213.658 47.539 218.874C48.8337 246.729 50.9523 248.294 55.4249 273.436C53.6594 274.271 50.1284 275.001 48.716 275.836C47.3036 276.67 45.4204 278.965 45.8912 281.156C47.0682 280.843 47.539 280.739 48.2452 280.322C47.7744 279.591 48.5983 277.818 49.893 277.088C51.8939 276.044 52.9532 275.94 55.778 275.523L57.3081 280.217C52.8355 283.138 44.9496 283.451 45.0673 289.607C49.4222 293.362 48.8337 292.632 56.955 292.736C59.6621 291.484 62.9577 290.128 63.4285 286.685C67.4303 284.703 81.0835 285.747 86.6153 285.538C85.7914 314.853 81.7897 339.265 84.379 360.235C86.2622 375.779 85.6737 393.619 88.6162 408.746C90.4994 418.135 93.0888 430.446 92.0295 440.148C90.1463 437.54 86.0268 437.957 82.3782 436.809C78.7295 435.662 75.9047 434.619 71.6675 433.993C68.1365 433.471 63.3108 432.636 59.5444 433.262C58.0143 433.471 56.3665 433.262 55.0718 431.28C54.1302 429.715 56.7196 299.309 57.1904 294.719C57.1904 294.614 55.4249 293.362 55.1895 294.927C53.3063 313.184 51.07 427.003 51.6585 429.194C52.1293 431.071 52.6001 435.662 54.0125 435.766C59.6621 436.079 71.7852 435.766 72.3737 435.87C76.3755 436.601 79.0826 438.166 82.6136 439C87.91 440.148 88.2631 440.252 91.7941 442.86C91.6764 444.321 92.618 457.257 92.7357 457.987C93.4419 464.768 91.5587 465.916 84.9675 468.211C76.0224 471.341 60.486 475.097 54.2479 468.733C51.4231 465.707 55.3072 457.57 57.5435 453.814C60.7214 448.389 69.4312 446.512 78.2587 449.12C78.9649 446.512 79.5534 448.076 80.1419 445.886L75.5516 445.155C54.4833 443.486 45.6558 459.135 49.7753 471.967C51.5408 474.575 56.6019 477.6 67.9011 477.079C73.7861 474.784 87.2038 470.715 94.0304 466.959C94.3835 469.359 95.5605 470.924 96.8552 472.593C104.27 478.957 123.22 479.478 134.048 467.377C135.696 465.499 137.344 464.977 138.756 462.891C135.108 456.527 132.871 447.659 131.577 439.313L130.047 431.697C128.752 432.219 127.928 431.802 127.575 434.306C127.457 435.244 128.163 437.435 128.516 438.374C130.753 446.199 134.401 455.797 136.167 463.204C130.87 469.567 120.984 475.514 110.861 474.575C105.33 474.053 101.681 473.532 98.9738 471.237C94.1481 467.064 96.8552 464.143 98.1499 458.822L124.162 457.153C128.987 456.84 127.928 457.466 131.341 457.674L131.106 455.379C126.751 453.814 105.212 455.901 98.8561 456.631L101.563 451.415C102.858 449.328 106.153 443.903 109.684 443.903C113.098 443.903 110.979 446.094 112.038 448.494C115.099 443.903 110.038 438.583 104.977 444.216C103.564 445.677 102.623 446.929 100.975 448.598C98.0322 451.728 96.9729 455.066 95.0897 459.239L94.2658 456.214C93.0888 449.433 93.6773 436.183 93.0888 428.672C92.1472 415.527 89.5578 396.018 88.9693 381.726C88.4985 370.459 87.3215 359.504 85.556 348.655C84.4967 342.082 88.2631 288.459 87.7923 287.207C92.7357 292.215 90.9702 336.866 93.5596 345.838C97.7968 360.339 96.3844 364.929 97.9145 379.848C99.7977 397.687 98.3853 415.631 99.0915 432.949C98.6207 434.827 99.4446 435.557 101.092 435.14C102.152 434.41 109.096 435.14 110.744 434.619C116.511 432.741 123.691 432.219 129.458 430.341C131.577 429.715 130.4 429.507 133.342 429.82C135.108 429.402 135.108 428.881 134.872 424.395C134.755 419.178 134.166 413.649 133.578 408.537C132.047 396.331 133.931 375.779 132.871 359.817C132.165 349.176 130.988 338.952 129.811 328.207C128.634 317.67 124.279 300.456 124.162 290.024C125.809 290.128 126.869 289.92 127.81 290.337C127.928 279.383 125.692 278.444 127.222 266.551L126.633 247.146C125.692 234.627 128.87 217.935 127.693 201.035C127.457 196.966 132.165 183.612 135.343 182.986C138.286 184.655 138.168 185.386 141.11 187.681C142.876 204.686 140.169 219.291 139.227 234.001C139.109 233.897 137.462 277.922 137.344 277.401C137.109 278.235 136.873 280.009 136.285 280.113C134.637 280.217 128.516 279.174 127.693 279.07C127.457 279.591 127.81 279.591 127.81 281.052C129.929 281.469 131.577 281.574 133.931 281.991C134.284 282.095 136.638 286.581 128.634 288.25C128.752 288.25 128.281 290.754 128.87 290.128C137.932 286.268 135.696 282.304 135.814 282.304C136.402 282.408 136.991 282.617 137.344 282.721C140.757 273.645 143.347 192.063 142.758 186.533C142.64 186.429 130.4 176.831 130.047 176.622C123.455 173.284 115.334 168.902 109.684 164.521C109.449 164.521 98.6207 157.844 96.8552 157.114L96.6198 152.732C102.858 149.185 107.919 148.768 106.507 139.691C108.507 140.422 108.978 141.256 111.685 141.256C124.162 141.256 121.808 112.671 103.446 127.068L102.387 124.251C103.564 124.356 105.8 125.399 106.153 122.895C106.271 121.956 106.271 121.643 105.683 120.808C103.8 121.017 104.859 123.208 102.74 121.956L97.2083 113.61C95.9136 112.254 95.3251 110.376 94.0304 108.498C91.5587 104.847 85.2029 103.491 80.7304 103.073C82.3782 102.03 84.6144 99.7348 89.087 101.195C96.0313 107.246 99.7977 102.343 107.33 107.664C107.684 107.976 108.861 108.811 108.978 109.228C109.92 110.898 109.449 110.48 108.861 111.837L106.507 114.549C109.331 114.445 110.508 114.653 110.391 112.254C111.097 113.401 111.921 115.488 112.627 116.844C114.039 119.348 113.922 119.974 116.864 119.661C118.747 115.488 115.334 119.139 112.274 111.002C106.742 96.5007 95.0897 105.473 89.2047 98.4829C86.0268 97.4397 84.2613 97.4397 81.0835 98.9002C75.9047 101.091 76.6109 99.3175 65.3117 104.325C62.3692 105.681 61.7807 107.559 59.1913 108.811C59.5444 102.76 66.1356 96.2921 74.0215 94.5186C79.5534 93.2667 79.7888 94.9359 81.0835 94.1013C79.4357 89.0936 66.1356 94.9359 63.5462 97.3353C61.1922 99.4218 57.0727 104.325 56.6019 107.664C56.2488 110.898 56.6019 110.48 58.3674 111.628C55.4249 113.401 56.4842 112.567 53.0709 112.567C49.3045 114.966 38.5939 121.434 38.2408 126.129C44.1257 126.546 47.1859 123.104 52.3647 122.478C50.9523 126.546 52.4824 125.712 52.247 129.05C49.0691 130.093 45.8912 131.554 43.4195 132.806C40.7125 134.162 39.5355 134.788 38.3585 140.109C37.5346 144.699 40.0063 148.037 43.8903 149.185C46.1266 149.811 48.5983 149.498 51.07 149.081C54.7187 148.559 54.4833 147.724 57.1904 146.368C60.0152 148.455 59.4267 151.689 66.2533 155.444C68.3719 156.592 70.6082 157.531 72.9622 158.157C75.1985 158.783 74.3746 159.93 73.6684 160.765C69.3135 162.33 62.6046 167.65 60.3683 170.572C48.0098 180.587 48.2452 177.77 37.2992 184.968C35.6514 187.368 34.8275 194.149 34.4744 196.966L34.9452 197.487ZM59.8975 174.849C60.9568 175.788 62.9577 179.231 64.3701 180.482C63.3108 189.767 62.6046 189.976 62.9577 197.487C61.4276 198.844 50.3638 206.251 48.1275 207.398C47.0682 201.035 45.6558 194.775 43.5372 190.706C41.8894 189.767 40.2417 187.055 38.3585 186.638C39.0647 184.76 58.9559 175.058 59.8975 174.849ZM121.454 290.024C124.868 303.065 126.869 320.904 129.223 332.171C129.929 335.301 130.87 392.263 130.4 398.418C130.4 401.339 131.341 403.425 131.459 405.825C131.812 413.023 133.46 420.639 133.578 428.046C124.868 430.028 131.694 429.611 119.218 431.593C112.156 432.741 110.273 434.201 102.387 433.262C101.799 422.934 103.093 412.293 102.74 408.642C99.9154 375.779 103.446 383.395 100.151 368.163C98.7384 361.904 95.4428 343.751 95.0897 337.387C94.3835 323.095 94.2658 299.622 90.8525 286.477C93.5596 285.955 121.337 289.711 121.337 290.024H121.454ZM46.9505 287.624C48.3629 285.642 54.1302 282.512 58.0143 282.304C59.5444 285.329 58.8382 283.243 60.486 288.146C58.132 291.902 50.4815 293.154 46.9505 287.729V287.624ZM58.2497 276.044C55.6603 264.882 52.4824 249.337 53.1886 244.538C57.7789 244.747 60.486 242.452 65.0763 241.617C65.0763 247.251 63.4285 274.062 64.3701 276.879C66.2533 277.296 65.9002 273.332 65.6648 271.245L66.9595 241.095L74.61 240.887C74.9631 248.189 75.3162 255.388 75.6693 262.691C75.9047 269.263 77.9056 277.609 77.9056 283.451C71.6675 283.66 66.9595 283.869 61.5453 284.39L58.3674 276.149L58.2497 276.044ZM77.0817 240.782L84.379 239.635C84.8498 253.51 85.0852 258.935 83.4375 272.497C82.9667 276.462 84.7321 279.383 83.0844 283.243L80.6127 283.347C78.6118 277.192 76.4932 247.772 77.1994 240.782H77.0817ZM66.4887 239.218L66.7241 230.663L74.1392 229.515L74.7277 238.487L66.4887 239.218ZM65.0763 231.289V239.218L52.4824 241.617C51.7762 238.487 51.3054 237.861 51.5408 235.566C55.0718 234.001 60.486 232.228 65.0763 231.289ZM49.7753 216.892C56.3665 213.241 54.601 212.406 64.1347 211.05L65.0763 228.472L57.6612 230.872C55.4249 231.602 52.8355 232.958 51.07 233.271C50.8346 225.238 49.6576 219.709 49.6576 216.892H49.7753ZM65.9002 210.841C67.548 209.902 70.0197 209.694 72.1383 209.381C74.4923 212.197 73.7861 222.213 74.0215 227.011L66.6064 228.472L65.9002 210.737V210.841ZM74.61 209.485L82.7313 208.65C84.1437 218.561 83.0844 227.95 84.379 238.383L76.7286 238.487L76.3755 228.785L81.5543 228.055C80.9658 227.533 81.5543 226.699 80.7304 226.594C79.5534 226.386 77.0817 227.116 76.1401 226.594L74.61 209.381V209.485ZM49.6576 214.701C49.893 212.928 48.0098 209.798 48.4806 208.337C53.0709 205.208 62.84 200.096 62.84 200.096C63.7816 201.139 63.8993 207.398 64.017 208.859C59.8975 211.05 54.9541 211.676 49.6576 214.597V214.701ZM102.74 227.429C106.507 225.76 111.45 224.403 116.393 223.882L117.335 240.052L103.329 239.218L102.74 227.324V227.429ZM117.923 223.673C120.984 223.569 123.926 223.673 126.045 224.612L124.75 241.826C122.396 241.513 121.219 241.2 119.454 240.052L117.923 223.673ZM112.862 201.869C113.215 209.485 115.569 214.284 115.805 222.108C100.739 223.047 102.387 229.307 101.328 214.492C101.092 211.989 99.3269 206.668 99.7977 204.269C101.328 203.538 110.038 202.078 112.862 201.869ZM126.516 201.139C126.986 206.564 127.104 217.101 126.516 222.63C122.396 221.9 122.749 222.004 117.806 221.691C117.57 219.604 114.863 202.078 115.216 201.452C115.805 200.2 124.985 199.991 126.633 201.139H126.516ZM98.9738 194.775C103.329 193.523 106.271 192.48 111.332 192.167L112.274 200.2C104.27 200.93 100.857 201.869 99.68 201.973C99.68 201.973 99.4446 198.218 98.9738 194.879V194.775ZM126.751 199.365C121.572 197.487 120.984 200.304 114.628 199.261C113.686 196.966 113.215 193.001 113.569 191.854C118.277 190.289 124.397 189.976 129.811 189.663L126.751 199.261V199.365ZM74.8454 163.582L77.3171 158.679C79.7888 158.47 81.7897 158.574 83.7906 157.948C84.9675 157.531 93.5596 154.61 94.8543 154.193L94.972 159.617L91.5587 162.017C90.1463 162.226 86.6153 166.712 84.9675 167.442C82.849 167.963 79.7888 169.841 78.7295 167.233L74.9631 163.477L74.8454 163.582ZM84.8498 129.155C89.3224 130.719 92.1472 128.946 91.5587 124.669C90.1463 121.539 80.6127 122.895 84.8498 129.155ZM78.0233 114.966C77.3171 114.445 80.0242 115.071 79.4357 114.549C78.3764 113.61 79.2003 110.793 78.8472 109.124L86.733 118.305C86.8507 118.409 86.9684 118.513 87.0861 118.618L87.91 119.035C89.5578 113.923 78.0233 104.742 81.9074 108.185C84.8498 108.707 87.91 109.75 90.4994 111.211C92.8534 112.567 93.9127 114.34 95.6782 116.948C99.4446 122.582 109.214 142.404 102.269 146.994L87.0861 153.88C85.7914 154.506 84.7321 155.653 81.3189 156.592C67.1949 155.444 64.1347 152.419 59.4267 142.612C57.1904 138.022 55.8957 135.205 55.6603 129.676C55.5426 125.92 55.3072 125.19 57.7789 123.312C58.6028 122.686 58.4851 122.999 59.1913 122.373C60.9568 120.6 61.3099 120.078 59.7798 120.496L57.1904 119.974C58.132 112.671 60.7214 115.488 64.6055 112.775C66.8418 111.211 69.6666 107.872 72.6091 107.038C75.1985 107.142 73.0799 109.541 78.3764 114.653L78.0233 114.966ZM53.1886 132.597C54.0125 137.292 52.8355 137.083 57.6612 145.116C52.1293 149.602 35.0629 148.768 43.6549 136.77C47.3036 133.328 48.5983 134.162 53.1886 132.597ZM107.448 127.068C116.276 123.208 116.511 128.111 116.982 133.536C117.217 136.77 115.569 138.022 113.451 139.065C105.447 138.857 106.153 135.31 104.741 131.137C105.33 128.216 104.27 128.633 107.448 127.068ZM46.1266 122.582C48.2452 120.704 51.8939 117.574 54.4833 116.844C52.247 121.539 53.8948 119.974 44.5965 124.147L46.1266 122.582ZM65.6648 138.961C71.7852 138.335 85.556 136.353 90.6171 139.796C90.264 143.864 85.6737 144.073 81.7897 146.994C72.4914 153.775 66.4887 139.796 65.6648 139.065V138.961ZM65.4294 138.544C65.3117 139.691 65.194 139.274 66.0179 141.361C67.0772 144.073 70.0197 148.35 73.0799 149.915C80.8481 154.088 83.2021 148.35 87.2038 146.264C89.7932 145.012 90.7348 143.134 91.5587 138.752C76.1401 133.953 78.3764 136.666 65.4294 138.544ZM70.7259 129.885C71.1967 124.877 66.8418 123.417 62.4869 126.859C62.7223 129.78 63.4285 133.223 70.7259 129.885Z" fill="#111111" fill-opacity="0.8"/>
</svg>
