<svg width="178" height="480" viewBox="0 0 178 480" fill="none" xmlns="http://www.w3.org/2000/svg">
<path fill-rule="evenodd" clip-rule="evenodd" d="M140.946 303.26C131.214 304.039 131.993 301.703 132.382 288.856C137.443 290.024 137.054 292.749 141.725 293.139C145.618 293.528 146.786 294.696 151.457 294.696C151.847 295.474 154.572 300.146 148.732 300.924C144.45 301.703 144.45 302.871 140.557 303.26H140.946ZM43.6229 129.246C43.2336 120.681 45.5694 113.285 51.4088 105.499L56.8589 98.8808C55.691 96.545 55.3017 98.1022 55.691 94.9878C59.1947 94.9878 58.4161 98.1022 62.309 95.7664L65.4234 93.8199C69.7056 95.7664 71.2628 93.0413 73.9878 93.4306C74.3771 93.4306 74.7664 93.4306 75.1557 93.8199C76.7129 94.2092 79.0487 94.9878 80.6059 94.9878C82.5523 95.3771 83.3309 95.7664 85.2774 95.7664C85.6667 95.7664 88.781 95.3771 89.5596 94.9878C92.674 95.3771 93.0633 95.7664 95.0097 97.7129C97.3455 100.049 102.796 103.942 105.521 105.499C108.635 107.056 109.024 103.942 109.414 108.613C106.689 109.781 103.574 107.445 101.238 106.277C97.7348 105.888 96.1776 105.499 96.5669 106.667C101.238 112.895 104.353 120.292 107.856 126.521C114.085 119.903 120.314 121.849 123.428 130.414C129.657 147.153 111.749 153.771 110.582 144.817C114.474 145.207 115.253 147.153 118.757 144.039C125.764 137.81 119.535 124.574 114.085 125.742C110.971 126.131 110.582 128.078 109.024 129.246C110.192 132.749 109.414 139.757 109.024 143.65C108.635 147.153 107.856 151.046 107.467 154.161C106.689 156.886 107.856 156.107 104.742 160.389C103.185 162.336 102.406 163.893 100.071 165.061L101.238 166.229C102.796 168.175 102.017 171.289 101.628 173.625C109.803 173.625 110.971 172.457 116.421 177.518C123.818 184.136 118.367 187.251 116.81 189.976C122.65 190.754 126.153 192.701 130.436 195.036C141.725 201.654 143.672 203.99 150.679 221.898C153.404 232.019 158.075 244.866 159.633 258.491C160.411 261.995 160.022 263.163 158.854 263.552C157.686 261.995 156.518 256.156 156.129 253.041C155.35 248.759 154.183 241.752 153.404 238.248C153.015 236.691 152.625 234.744 151.847 233.577C150.679 230.462 149.9 227.737 148.732 224.623C147.564 219.173 146.397 220.73 145.229 225.401C142.504 233.577 139.779 240.195 136.664 247.98C134.328 254.209 135.107 259.659 133.939 261.606C132.771 263.942 131.993 262.774 131.603 267.056C131.603 269.392 130.825 271.727 130.825 273.674C131.993 274.063 133.161 275.231 133.939 275.231C136.275 274.063 138.221 271.727 142.114 272.117C147.564 272.895 148.732 284.185 154.961 277.956C158.854 274.063 155.74 274.842 161.968 272.895C162.358 270.56 161.19 269.392 159.633 268.224C154.961 266.667 156.129 269.392 153.793 270.56C151.457 270.17 153.015 269.002 153.404 268.224L154.183 266.667C149.9 263.552 147.954 263.552 144.45 267.445C143.282 270.17 142.504 270.949 140.946 270.17C140.557 266.277 144.839 263.163 149.511 263.552C153.015 263.942 154.572 263.942 156.518 266.277C160.801 263.942 164.693 269.781 164.304 273.674L161.579 275.231C157.686 276.01 159.243 277.567 156.129 279.903C152.236 282.628 147.175 279.903 144.839 277.178C142.504 274.063 143.672 271.338 137.832 274.842C135.496 276.399 131.993 280.681 131.603 284.574C135.107 286.131 135.107 285.353 138.611 288.078C140.946 290.024 142.504 289.246 145.618 290.803C149.122 292.36 150.679 291.581 152.625 289.635C155.74 286.521 153.015 282.628 156.129 281.46C156.908 283.796 156.518 288.856 154.572 290.414C154.183 290.803 153.404 291.581 153.404 291.581L155.35 298.199C153.793 299.757 152.625 300.535 150.679 301.314C149.122 302.092 147.175 302.482 147.175 304.039C146.786 307.153 149.511 312.603 150.29 316.107C151.068 320.778 151.068 325.839 151.457 330.511C152.236 338.686 160.411 345.304 157.297 355.036C151.457 355.426 153.404 355.036 149.122 352.701C148.343 353.868 147.954 355.426 146.786 356.204C143.672 358.151 137.054 356.594 135.496 354.258C133.939 351.922 134.328 349.197 135.107 346.083C137.832 343.747 133.161 342.19 134.718 337.907C137.443 338.297 136.275 337.518 137.443 341.022C139.389 346.472 141.336 345.693 140.946 352.701C139 352.311 138.221 347.64 137.443 346.083C135.496 348.418 135.886 352.311 138.221 354.258C140.557 355.426 144.061 355.426 146.007 354.258C147.175 349.197 146.786 351.143 146.786 346.861C146.397 343.358 145.618 339.854 148.732 339.854V349.197C150.679 350.754 153.015 352.311 156.129 352.701C157.686 343.358 150.679 342.968 149.511 328.954C149.122 324.282 148.732 320 147.954 315.328C144.061 297.81 145.229 306.764 131.993 303.65C130.046 298.589 131.214 290.414 129.657 287.299C129.657 285.353 130.436 283.406 130.436 283.406C131.603 281.46 131.603 279.903 133.55 278.345C131.993 276.788 131.603 276.788 130.046 275.62C129.268 274.842 130.436 272.117 129.268 270.56C128.1 269.002 124.985 269.002 125.375 266.667C127.71 266.277 128.1 267.056 129.657 267.834C130.825 257.713 120.314 222.676 123.818 217.226C126.543 218.005 126.153 218.005 125.375 221.898C124.596 226.959 130.825 258.881 131.993 261.606L133.161 258.881C133.55 256.156 133.55 253.041 134.328 250.706C135.496 247.591 136.664 244.088 138.221 240.973C140.946 234.744 146.397 223.844 146.007 216.837C140.557 201.654 135.886 198.929 124.207 194.258C119.925 192.701 114.864 192.701 114.474 190.365C114.474 189.976 114.474 189.976 114.085 189.586L98.1241 192.311C97.7348 196.204 98.1241 206.326 98.1241 210.219C98.9027 221.898 99.6813 235.523 99.6813 246.423C99.6813 248.759 100.071 251.095 101.238 253.431C101.628 254.598 103.185 255.766 103.574 256.545L102.796 258.491C100.46 258.102 99.6813 256.934 98.9027 253.041C96.9562 240.973 96.9562 199.319 95.399 194.647C93.0633 193.869 91.8954 197.372 88.3917 196.594C89.1703 194.647 90.3382 193.869 92.2847 192.701C93.0633 192.311 93.8419 192.311 95.0097 191.533C96.9562 190.365 95.399 191.922 96.9562 189.586C100.849 190.365 116.81 185.693 119.146 184.136C119.146 180.243 116.032 177.518 112.917 175.961C107.467 173.625 103.964 176.35 101.628 176.74C100.071 174.015 102.017 167.786 99.292 166.618C97.7348 166.618 96.9562 167.007 96.1776 167.786C93.4526 170.122 91.1168 175.182 89.5596 178.297C82.163 192.311 88.781 186.861 86.8346 193.869L84.1095 193.479C81.7737 189.586 84.1095 183.747 86.056 179.854C87.2239 177.518 88.0024 175.961 89.5596 174.015L92.2847 169.343C90.3382 169.732 88.3917 170.511 86.8346 170.9C77.8808 172.068 72.82 170.122 64.6448 167.397C61.9197 166.618 58.0268 163.114 56.4696 161.557C52.9659 158.443 52.9659 157.664 51.0195 154.55L46.7372 142.482C45.9586 137.81 45.1801 133.917 44.7908 130.024C41.6764 130.803 40.1192 126.91 35.837 131.192C33.8905 133.139 33.1119 136.253 33.5012 139.367C35.4477 151.046 40.1192 147.153 44.4015 151.435C36.2263 155.328 31.1655 145.207 30.7762 138.199C30.3869 121.071 44.4015 130.024 44.4015 128.467L43.6229 129.246ZM86.8346 97.7129C89.5596 100.049 94.2312 103.942 97.7348 103.942C96.1776 102.384 96.9562 102.384 95.399 100.827C93.8419 99.27 91.8954 98.1022 90.3382 96.9343C89.9489 96.9343 86.4453 97.3236 86.4453 97.7129H86.8346ZM56.4696 142.092C63.8662 135.864 68.1484 136.253 77.1022 133.528C87.6132 130.024 91.1168 133.139 101.238 135.085C108.246 136.642 107.467 137.032 107.078 144.039L105.521 154.161C105.521 154.939 102.017 161.168 101.628 161.168C98.1241 165.45 91.5061 168.175 89.5596 168.954C82.9416 170.122 81.3844 171.289 68.1484 167.786C63.8662 166.618 56.4696 162.336 54.1338 158.443C48.2944 149.878 55.3017 149.489 56.8589 142.092H56.4696ZM53.3552 143.26C52.1874 145.985 51.0195 147.543 49.8516 149.1C48.2944 144.817 47.5158 142.482 47.5158 137.81C50.2409 139.367 52.1874 140.925 53.3552 143.26ZM106.689 133.528C102.017 134.307 90.7275 128.856 86.4453 129.246L67.7591 133.139C56.0803 137.421 53.3552 143.26 47.9051 133.139C41.6764 121.849 54.5231 103.552 59.9732 100.827C64.6448 103.163 63.4769 104.331 70.0949 106.277C73.2093 107.056 76.3236 110.56 78.6594 109.781C79.438 107.835 77.8808 107.835 77.1022 105.888C81.7737 107.056 82.163 105.888 82.163 103.552C85.6667 105.499 88.0024 106.667 90.3382 106.277C92.674 105.888 93.0633 104.72 97.3455 111.727C102.017 118.735 105.131 121.46 106.689 133.528ZM73.2093 104.72C70.0949 103.552 64.2555 101.217 63.4769 98.4915C65.8127 96.1557 66.202 96.9343 67.7591 98.8808C72.0414 103.942 72.82 101.606 73.2093 104.72ZM88.781 103.552C85.6667 102.774 79.438 100.827 78.6594 96.9343C83.3309 98.1022 87.6132 100.438 88.781 103.552ZM70.4842 96.545C75.1557 96.1557 78.6594 101.995 79.438 104.331L72.4307 100.049C70.8735 98.8808 70.4842 98.4915 70.4842 96.545ZM126.153 441.07C127.71 442.628 136.664 449.635 142.504 452.36C148.732 455.474 154.961 459.367 158.854 462.871C157.686 467.153 149.511 471.825 144.45 473.382C140.946 474.16 136.275 473.771 132.382 473.382C126.153 472.993 125.764 471.435 121.482 470.657C121.482 471.825 121.482 472.603 121.092 474.16C113.696 474.939 96.1776 473.771 91.8954 469.1C94.6205 458.199 91.8954 457.031 94.2312 448.856C95.7883 443.795 96.1776 445.353 97.3455 445.742L115.253 449.246C126.153 451.192 121.092 446.91 126.153 441.46V441.07ZM48.2944 363.212C41.6764 365.937 39.3406 356.204 42.455 351.143C45.5694 351.533 47.1265 352.701 47.9051 355.426C48.6837 358.151 49.073 360.486 48.2944 362.822V363.212ZM36.6156 285.353C36.2263 289.635 35.837 295.864 33.8905 298.978C31.944 299.367 29.9976 299.367 27.6618 298.978C24.9367 296.253 27.6618 293.139 25.7153 290.024C24.9367 290.414 23.7689 290.414 23.7689 290.803C25.7153 297.81 23.7689 304.817 24.5475 315.718C24.9367 320.389 27.6618 330.9 28.4404 334.014C29.9976 337.518 31.1655 338.297 30.7762 342.968C30.3869 349.976 27.2725 359.708 35.837 360.486C37.0049 359.319 37.3942 358.54 38.1728 357.372C40.1192 363.601 40.1192 368.272 49.073 365.158L54.9124 399.805C56.0803 406.034 56.4696 411.095 58.0268 416.934C58.8054 421.216 59.9732 428.224 58.4161 432.117C54.5231 439.513 55.3017 441.46 57.2482 449.246C55.691 450.024 51.4088 450.803 49.073 451.581C42.0657 454.306 29.6083 456.253 24.1582 460.924C24.1582 467.542 28.0511 471.435 32.3333 473.771C39.7299 478.053 42.455 477.275 51.4088 477.275C57.6375 477.275 64.2555 476.496 69.7056 474.16C76.3236 471.435 81.3844 471.435 88.781 470.657C93.0633 474.939 91.5061 478.053 107.078 477.275L122.26 476.885L121.871 473.771C125.375 473.771 128.1 475.718 133.55 476.107C143.282 476.496 149.122 474.939 156.908 469.489C160.411 467.153 162.358 466.375 161.579 461.703C154.961 457.031 127.71 443.795 126.543 439.903C124.596 429.002 127.71 390.851 128.1 377.615C128.489 370.219 128.1 347.64 130.436 341.411C131.603 337.907 131.214 335.182 130.436 330.9C131.993 330.122 132.382 330.511 133.939 330.122C133.939 330.122 134.328 330.122 134.328 329.732C134.718 324.671 133.161 319.611 133.55 314.16C133.55 312.603 133.939 312.603 133.939 311.435C133.55 307.932 133.939 310.268 133.161 309.1C133.161 307.932 130.436 310.268 130.825 315.718C131.214 319.611 130.436 323.893 131.214 327.396C123.428 327.007 117.589 326.618 109.414 327.007C91.1168 328.175 72.4307 327.007 54.5231 324.671C47.5158 323.893 47.9051 320.778 45.5694 323.893C46.3479 327.007 47.9051 326.618 53.7445 327.007C64.2555 328.175 74.7664 329.732 85.6667 329.732C93.0633 329.732 100.071 330.122 107.078 329.343C115.253 328.564 119.535 328.564 127.71 329.343C125.764 344.915 126.543 362.822 125.764 378.394C125.375 385.791 123.039 424.331 123.818 428.224C121.482 429.392 120.314 430.17 115.253 431.338C113.696 431.727 110.971 432.117 109.024 432.117C102.406 431.727 102.406 428.613 101.628 431.727C104.742 437.177 118.367 432.117 123.818 430.559C124.207 431.727 123.428 434.842 123.428 436.01C120.703 437.177 121.092 434.842 119.535 436.788C120.314 438.735 122.65 437.956 122.65 439.513C122.65 439.513 119.146 446.131 119.146 446.521C116.032 446.91 98.5134 443.795 95.399 441.46L93.0633 439.513C93.8419 434.842 92.674 429.781 93.0633 425.109C93.0633 424.331 94.2312 420.438 93.8419 408.759C92.2847 399.027 92.674 387.348 91.5061 376.837C90.3382 366.715 88.3917 356.594 88.3917 345.693C91.8954 346.472 93.4526 347.25 93.0633 344.136L81.3844 342.19C78.6594 341.411 71.6521 339.465 68.927 340.632C70.4842 345.304 82.5523 342.579 85.2774 345.693C86.8346 347.64 90.7275 391.63 90.7275 392.798C91.1168 397.859 92.2847 413.431 91.5061 416.545C90.3382 421.216 90.7275 424.331 90.7275 429.392C90.7275 434.063 90.3382 437.567 90.3382 441.849C89.9489 446.521 88.781 449.246 88.781 453.528C88.781 456.253 89.1703 465.207 88.0024 467.153C86.8346 467.932 76.3236 469.489 73.9878 469.878C75.9343 465.985 79.0487 462.871 80.2166 458.978C80.6059 457.81 80.6059 457.031 80.9951 455.864C82.9416 448.467 79.0487 447.299 79.0487 451.581C78.6594 458.978 74.7664 467.542 67.7591 470.657C58.8054 474.939 45.9586 475.718 37.0049 472.993C29.9976 471.046 24.9367 467.153 26.1046 460.146C31.1655 457.81 50.2409 451.192 56.4696 451.192C59.584 451.192 61.9197 451.581 65.0341 450.413C67.3698 449.635 68.1484 450.413 67.7591 448.467C64.2555 447.688 63.8662 448.467 59.1947 448.467C57.2482 444.963 57.2482 443.017 57.2482 439.124C68.5377 444.185 75.545 442.238 79.8273 439.903C75.1557 439.903 60.3625 440.292 59.1947 435.62C59.584 433.285 60.3625 431.338 60.3625 420.438C57.6375 411.095 56.4696 401.362 54.5231 391.63C53.7445 387.737 54.1338 385.012 53.3552 381.508C52.1874 374.89 50.2409 368.272 49.4623 361.654C48.2944 352.701 44.0122 340.243 44.4015 331.289C46.3479 332.068 47.5158 333.625 50.2409 332.847C49.073 330.511 45.9586 330.511 44.4015 327.396C42.8443 323.504 41.2871 317.664 47.1265 317.275C49.073 317.275 49.8516 317.275 51.7981 316.886C63.0876 316.496 90.7275 316.886 101.238 318.443C105.131 318.832 117.978 320.389 121.092 320C121.482 317.664 121.482 316.886 120.314 315.328C115.642 316.107 121.482 318.053 113.307 317.275C98.5134 315.718 54.1338 312.603 44.0122 315.328C44.7908 307.542 45.9586 300.146 45.9586 292.749C45.9586 290.414 46.3479 286.91 44.7908 286.131C42.0657 285.353 40.8978 287.688 42.0657 290.414C44.0122 295.864 42.455 297.421 42.0657 302.482C41.6764 305.985 42.455 308.71 41.6764 316.886C39.7299 332.847 43.6229 337.129 45.1801 350.754C43.6229 350.365 43.6229 349.976 41.6764 349.586C41.6764 347.64 42.0657 346.861 41.6764 344.915H36.6156C37.0049 346.861 38.1728 345.693 40.1192 347.25C39.3406 351.533 36.6156 356.204 33.5012 357.372C30.7762 354.258 30.3869 351.922 31.5548 346.083C32.3333 336.74 35.837 337.518 36.2263 336.35C35.4477 334.014 33.1119 337.129 31.5548 337.518C28.0511 330.511 24.1582 318.443 24.9367 309.878C24.9367 309.878 25.7153 301.703 26.1046 301.314C29.219 298.589 37.0049 308.71 36.6156 284.574C40.1192 283.406 42.455 283.406 44.7908 281.849C49.8516 278.735 49.8516 279.513 52.5767 279.124C52.9659 277.567 52.5767 277.567 52.5767 275.231C51.4088 261.606 49.8516 227.737 54.1338 218.005C55.691 213.723 55.3017 211.387 55.3017 211.387C51.7981 212.165 52.5767 213.333 51.7981 217.226C48.6837 236.691 49.4623 257.324 50.2409 276.788C44.0122 280.292 44.4015 279.903 38.9513 281.849C35.0584 282.628 26.8832 284.963 26.8832 285.353L27.6618 286.521C27.6618 286.521 32.7226 285.742 34.6691 284.963L36.6156 285.353ZM32.7226 202.044C37.3942 197.372 41.2871 196.204 47.1265 190.754C50.6302 192.701 54.9124 194.258 59.584 193.479C56.4696 189.197 44.7908 192.311 43.6229 182.19C46.7372 181.8 47.9051 181.411 48.6837 180.633C50.2409 177.129 45.5694 176.35 46.7372 170.122C59.584 168.175 66.9805 178.686 73.2093 187.64C74.3771 189.197 74.7664 190.365 75.9343 192.311C77.8808 195.426 76.7129 195.426 79.438 196.204C80.2166 194.258 79.0487 191.533 77.4915 189.586C76.7129 188.808 69.7056 177.129 64.2555 172.847C60.3625 169.732 54.5231 167.786 49.4623 167.007C41.2871 165.839 43.2336 170.122 45.9586 179.075C43.2336 179.854 40.8978 179.465 42.0657 184.136C42.8443 187.251 43.6229 188.029 45.9586 189.586C44.0122 191.533 42.455 192.311 36.6156 196.594C34.6691 198.151 28.8297 204.379 27.6618 205.937C24.9367 210.997 24.1582 216.058 22.601 221.508C21.0438 227.737 20.2652 234.744 19.0973 240.973C15.5937 260.827 16.7616 257.713 12.8686 277.956C15.5937 286.131 17.1509 290.024 19.8759 290.803C24.1582 290.024 25.7153 288.467 28.8297 287.688C29.219 287.688 28.8297 285.742 28.0511 285.742C26.8832 286.521 21.0438 288.856 19.8759 288.856C17.1509 286.131 14.8151 281.46 14.4258 278.345C14.4258 270.17 17.5402 258.102 19.0973 249.927L24.9367 217.226C26.4939 212.555 27.6618 210.997 28.8297 205.937C29.9976 204.379 31.944 202.433 32.7226 202.044ZM78.6594 262.384L80.2166 258.881C80.6059 253.041 79.438 261.216 77.8808 248.759C76.7129 239.027 74.3771 218.394 73.9878 209.051C73.9878 202.822 73.5986 204.769 74.3771 200.487C76.7129 196.983 76.3236 198.929 75.1557 196.204C69.3163 197.761 71.6521 203.212 71.6521 211.776L75.9343 254.598C76.3236 258.102 76.3236 260.438 78.2701 262.384H78.6594ZM26.1046 218.005C25.7153 219.562 26.8832 219.173 31.5548 225.401C37.3942 233.187 41.2871 244.088 44.0122 247.591C46.7372 251.873 51.4088 253.431 46.3479 246.423C43.6229 242.141 44.0122 242.141 42.0657 237.47C41.6764 236.691 41.2871 235.912 40.8978 235.134L36.6156 228.905C35.4477 227.348 35.0584 226.569 33.8905 224.623C32.7226 223.066 29.219 217.615 26.4939 218.394L26.1046 218.005ZM62.6983 117.567C60.3625 119.513 60.3625 123.406 63.4769 124.963C68.1484 123.406 66.5913 117.178 62.6983 117.567ZM95.399 123.796C99.6813 122.238 98.5134 117.567 94.2312 116.788C90.7275 117.956 91.5061 122.628 95.399 123.796Z" fill="#111111" fill-opacity="0.8" id="michael"/>
</svg>
