<svg width="178" height="480" viewBox="0 0 178 480" fill="none" xmlns="http://www.w3.org/2000/svg">
<path fill-rule="evenodd" clip-rule="evenodd" d="M37.2114 299.396C38.284 293.496 38.284 295.91 48.2057 296.446C53.5687 296.714 57.591 297.25 62.954 297.519C62.6859 297.519 62.6859 297.519 62.4177 297.787C61.6133 300.2 44.1834 300.736 37.2114 299.128V299.396ZM38.0159 292.424C39.0885 289.742 38.8203 282.502 38.284 279.284C60.8088 283.307 87.3558 281.161 109.881 279.016L133.21 276.066C133.21 280.625 132.405 282.234 127.579 285.72C124.897 287.597 125.165 286.793 122.752 286.256C120.607 285.988 121.411 287.061 117.657 287.597L92.7189 291.083C87.3558 292.156 78.5068 294.837 71.2667 294.569C68.3171 294.569 57.8591 295.105 51.1553 294.301C47.9375 295.105 40.9656 293.228 38.0159 292.692V292.424ZM139.377 279.552C140.45 276.066 141.254 276.066 140.986 273.117C140.718 269.631 140.718 271.776 140.718 266.681L139.645 233.43C139.109 225.118 140.45 217.609 140.718 209.028C140.986 207.42 142.327 203.397 141.791 200.179C138.305 195.889 142.863 167.465 141.254 154.325C139.377 139.577 140.182 148.694 138.305 137.432C137.5 133.141 135.623 128.315 135.087 132.337C136.428 137.164 137.768 144.94 138.841 150.035C141.791 165.32 139.377 170.683 139.109 186.504C139.109 190.794 137.768 197.498 139.914 200.716C140.45 203.665 139.645 205.542 139.377 209.028C138.841 217.073 137.5 226.995 138.037 234.771C138.841 246.302 138.305 259.173 138.841 267.217C139.109 271.776 140.182 273.921 134.014 273.921C128.919 273.921 116.316 275.798 111.221 276.871C107.735 277.407 102.909 277.407 99.1545 277.943C81.1883 279.552 54.3732 282.77 38.284 276.603C38.0159 273.653 38.0159 274.726 37.7477 269.094C36.9433 263.463 37.2114 268.29 36.9433 257.564C35.6025 226.19 36.6751 199.643 32.921 168.001C32.3847 162.37 29.9713 136.091 30.5076 132.605C32.3847 128.851 29.9713 132.069 35.3344 123.488C38.0159 118.929 44.7197 111.689 49.2783 108.471C55.4458 104.181 54.9095 106.594 58.9317 104.717L57.591 102.572C60.0043 101.499 60.0043 102.304 59.7362 99.3542C51.1553 99.6224 46.8649 100.159 43.6471 93.1867C40.6974 86.7511 46.0604 79.511 54.105 80.8517C65.6355 82.997 75.289 82.4607 79.3113 91.0415C80.1157 92.6504 80.3839 93.723 80.9202 94.7956C80.9202 95.0638 81.1883 95.332 81.4565 95.6001C82.7973 97.209 82.7973 97.209 84.6743 97.7453L80.652 89.4326C75.5572 80.0473 64.0266 81.6562 54.3732 78.9747C51.1553 78.1702 47.6694 78.4384 45.256 80.5836C43.3789 82.1925 41.5019 85.9466 41.5019 89.4326C41.2337 97.4772 47.6694 100.427 54.6413 100.695L54.9095 103.108C52.7642 104.985 50.619 103.913 44.9878 109.276C41.2337 112.762 37.4796 118.393 33.9936 122.952L24.3401 137.968C20.0497 145.745 17.1 151.108 13.6141 160.225C13.0777 161.566 9.05547 181.677 7.17841 203.397C4.49689 234.235 3.69243 270.167 4.49689 272.312C5.30134 273.385 4.49689 273.117 6.91025 273.921C8.78732 274.458 28.3624 275.262 28.3624 273.385C29.9713 244.693 24.3401 225.654 29.7032 198.57C30.5076 189.99 28.0943 191.33 27.8261 197.498C22.7312 216 26.2172 272.044 26.2172 271.776C25.4127 271.776 24.8764 272.044 24.072 272.312C22.1949 273.117 7.98286 272.849 6.1058 271.508C5.83765 265.608 5.83765 234.235 8.51917 203.934C9.85993 188.113 13.0777 172.828 14.9548 161.566C16.2956 154.325 25.6809 138.236 26.2172 136.627C26.7535 137.164 27.8261 136.091 28.0943 137.432C28.3624 137.968 28.3624 138.773 28.6306 139.577L33.9936 199.911V235.575C34.2618 247.106 35.8707 259.173 36.1388 269.899C38.284 286.793 35.3344 298.055 35.8707 305.295C36.407 311.999 37.7477 318.703 38.5522 325.138C39.6248 331.574 40.4293 338.546 41.2337 344.981C43.1108 359.194 54.105 421.673 60.2725 432.399C61.8814 435.081 63.4903 437.226 64.8311 439.907C53.0324 435.617 40.4292 451.706 32.6528 459.214C30.7758 461.091 24.3401 466.186 23.5357 468.331C25.4127 470.208 30.7758 472.89 33.9936 473.963C39.8929 476.644 40.4293 476.644 47.4012 477.18C52.4961 477.449 58.3954 476.912 63.4903 477.18C68.5852 477.449 83.0654 476.108 83.6017 470.745C77.7024 472.622 73.4119 475.572 63.2222 475.035C51.6916 474.499 36.1388 475.035 27.558 467.259L54.105 442.857C55.9821 441.784 57.0547 440.98 60.0043 440.444C63.7585 439.907 62.6859 440.98 65.3674 440.98C66.44 440.98 67.2444 439.103 66.1718 437.226C61.077 430.522 59.468 424.891 57.591 416.31C56.2502 409.874 54.3732 404.243 53.0324 398.076C49.2783 378.769 37.4796 319.239 37.4796 301.541C49.8146 303.954 59.7362 300.2 71.5349 298.055C73.1438 297.787 83.6017 297.519 84.9425 298.859C85.7469 300.736 89.2329 329.161 89.5011 333.451C90.3055 345.786 91.3781 358.925 92.1826 371.26C93.5233 391.908 91.11 423.818 94.8641 443.93C95.4004 446.343 95.4004 446.611 97.5456 446.879C98.8864 444.198 96.7412 442.857 96.2049 439.639C94.8641 430.522 94.5959 420.6 94.5959 411.215C94.3278 381.986 94.0596 363.752 91.3781 334.524C90.3055 322.457 87.3558 309.585 87.3558 298.055C94.8641 297.787 104.518 298.323 112.294 298.591C120.875 298.859 127.31 296.714 135.623 296.714C138.841 325.406 135.355 367.238 131.333 396.735C129.724 407.997 127.847 435.617 128.651 444.198C127.847 455.46 153.053 461.628 156.003 468.063C149.299 472.89 135.891 475.84 127.042 475.84C117.925 475.572 113.903 475.303 106.126 471.281C104.249 470.208 105.054 469.94 103.177 471.549C112.83 479.594 147.154 479.594 159.757 468.6C158.952 465.114 160.025 466.723 157.344 464.845L145.545 457.605C139.914 454.656 134.014 452.51 131.601 446.075C130.796 438.03 129.724 428.645 131.869 411.215C135.355 382.523 138.305 354.099 138.841 325.138C139.109 312.803 139.377 301.541 138.305 289.206C138.305 287.865 139.109 280.893 139.109 280.089L139.377 279.552ZM138.573 276.335C137.5 279.552 138.037 281.966 137.232 284.647C136.964 291.887 136.16 293.228 135.355 293.228C131.333 295.373 116.316 296.714 105.59 296.446C99.6908 296.446 86.2832 295.91 81.1883 296.982C81.9928 295.642 80.1157 297.25 81.9928 296.178C86.0151 294.033 91.3781 293.764 95.6686 293.228C101.568 292.424 124.361 290.278 127.847 288.67C128.651 288.401 131.869 284.915 132.674 284.111C134.282 281.966 134.551 279.821 134.819 276.603C136.428 276.335 137.768 276.335 138.573 276.066V276.335ZM155.466 271.508C152.249 269.899 152.517 268.558 151.98 267.217L147.958 200.448C147.69 197.766 147.69 190.526 144.74 189.99C142.059 192.671 145.545 196.962 145.813 200.448C146.081 205.006 146.349 209.565 146.617 213.855L150.103 267.486C150.908 274.189 151.444 273.117 156.271 273.921C158.952 274.726 167.801 274.458 171.019 273.921L172.36 273.385C174.505 272.58 171.019 265.608 170.751 263.463C168.338 251.396 167.801 238.793 166.461 226.458L165.388 201.52C164.584 196.425 167.265 199.643 164.047 178.459C163.243 173.364 160.293 161.297 158.684 156.739C156.003 149.767 153.053 143.331 149.835 137.7C147.422 133.678 146.617 133.678 145.277 128.583C143.936 122.415 138.841 115.712 135.891 110.08C134.014 106.594 132.405 104.181 128.651 102.84C129.188 99.8905 129.188 98.5498 127.847 95.8683C126.506 92.9186 124.897 93.1867 121.411 93.4549C126.238 68.5168 109.881 74.9524 96.2049 80.3154C91.11 85.1422 85.4788 87.2874 83.8699 95.332C86.0151 94.2593 87.8921 91.5778 89.5011 89.4326C92.4507 85.4103 96.7412 81.9244 101.3 79.511C103.445 78.4384 106.931 77.3658 110.149 77.0976C117.925 76.8295 120.607 80.5836 119.802 88.0919C119.534 92.3823 116.853 95.332 121.411 95.8683C124.629 96.1364 126.238 94.7956 126.238 100.963C120.339 105.254 113.635 102.304 108.004 104.181L105.858 105.522C109.612 105.522 118.73 106.326 121.679 105.79C125.165 105.254 128.651 99.3542 137.768 117.589L142.327 128.583C142.863 130.46 144.204 131.532 144.74 133.41L148.763 142.795C154.662 152.716 165.388 186.235 162.438 198.839C163.511 220.291 165.12 238.793 168.07 259.173L170.483 270.972C168.07 270.972 157.612 272.044 155.466 271.508ZM95.4004 79.2428C98.3501 76.8295 102.909 75.2206 105.322 71.7346C108.808 66.9078 106.663 60.7403 106.395 55.1092C108.808 55.1092 110.417 50.5506 112.562 52.6958C111.758 61.0085 109.076 58.0588 108.808 61.5448C111.221 61.0085 113.903 59.6677 114.439 57.2544C116.584 48.6735 109.076 45.7238 106.395 54.3047C104.518 50.0143 102.909 43.5786 100.495 40.3608C98.3501 37.4111 96.7412 31.7799 94.0596 29.3666C93.5233 28.8303 92.987 28.5621 92.1826 28.0258C93.2552 27.7576 92.4507 27.7576 93.7915 28.2939L96.473 29.3666C98.8864 30.4392 99.959 31.2436 101.568 30.171C101.032 27.7576 96.2049 26.9532 93.7915 25.8806C87.3558 23.1991 87.0877 21.322 75.5572 25.6124C70.7304 27.2213 71.803 28.2939 65.0992 28.0258C63.2222 30.7073 62.954 30.171 60.5406 32.3162C58.6636 33.9251 58.1273 35.2659 55.7139 37.143C51.6916 40.0926 51.4235 46.7964 51.9598 51.8913C46.5967 50.2824 41.5019 55.3773 43.9152 60.4722C44.4515 61.813 46.8649 65.0308 48.2057 66.1034C51.1553 68.5168 52.7642 67.7123 56.5184 67.176C59.7362 71.7346 60.2725 74.6843 65.9037 77.3658C73.1438 80.8517 77.1661 80.0473 79.5794 80.5836C87.624 81.3881 92.1826 80.0473 95.1322 79.2428H95.4004ZM80.3839 78.4384C79.0431 78.1702 81.7247 78.4384 77.1661 78.1702C71.803 77.9021 65.6355 75.7569 62.4177 72.0027C60.2725 69.5894 59.468 67.7123 58.6636 65.2989C58.6636 65.0308 58.6636 65.0308 58.3954 64.7626L57.591 63.1537C56.2502 60.7403 56.2502 59.9359 56.5184 57.5225V57.2544V56.9862V56.7181C56.2502 56.1818 55.9821 57.2544 55.4458 54.5728C54.6413 51.8913 54.9095 44.3831 56.2502 41.9697C58.1273 37.6793 61.3451 37.6793 65.6355 37.4111C69.926 37.143 73.6801 36.3385 78.2387 37.6793L81.1883 38.7519C81.7247 39.02 81.7247 39.02 82.5291 39.2882C84.9425 39.8245 85.7469 40.0926 86.8195 38.2156C84.138 36.0704 82.7973 35.5341 78.775 35.2659C75.0209 34.9977 72.3393 34.4614 70.9986 31.2436C77.7024 31.7799 83.6017 36.6067 87.624 34.9977C87.3558 30.7073 80.9202 33.1207 79.8476 28.2939C90.5737 31.7799 92.1826 29.9029 96.473 36.8748C101.568 45.4557 112.83 66.3715 101.3 73.6116C96.473 76.5613 94.0596 79.7791 88.6966 79.511C84.138 79.511 86.0151 78.7065 81.1883 78.4384H80.3839ZM90.0374 45.992L88.9648 47.869C90.8418 49.478 91.9144 49.478 95.6686 49.478C98.8864 49.478 100.227 48.9417 100.763 45.992C92.1826 47.3327 95.6686 45.992 90.3055 45.7238L90.0374 45.992ZM55.7139 65.5671C49.5464 67.176 43.9152 59.3996 47.1331 55.3773C49.5464 52.1595 52.2279 53.5002 53.3005 56.9862C53.8368 59.1314 55.4458 63.69 55.7139 65.5671ZM62.4177 35.2659C63.2222 33.657 62.954 33.657 64.2948 32.8525C67.2444 30.9755 69.6578 32.3162 71.2667 34.7296L62.4177 35.2659ZM72.0712 62.0811C72.8756 66.3715 76.3616 65.5671 82.7973 65.0308C83.3336 65.0308 84.4062 65.0308 84.6743 64.7626C86.5514 64.4945 85.4788 64.4945 86.2832 64.2263C85.7469 62.0811 86.0151 62.8856 84.9425 61.2766C81.1883 61.813 84.9425 62.6174 79.3113 62.3493C76.6298 62.3493 74.7527 61.5448 72.3393 61.813L72.0712 62.0811ZM62.6859 52.1595C65.3674 52.6958 70.4623 53.2321 71.803 50.2824C71.2667 50.0143 64.5629 49.478 62.6859 49.7461V52.1595Z" fill="#111111" fill-opacity="0.8"/>
</svg>
