<svg width="178" height="480" viewBox="0 0 178 480" fill="none" xmlns="http://www.w3.org/2000/svg">
<path fill-rule="evenodd" clip-rule="evenodd" d="M118.601 468.774C117.571 452.904 151.165 454.141 160.44 452.492C161.471 454.759 161.883 454.141 163.119 456.202C165.386 459.912 169.302 466.095 169.715 469.598C164.768 476.194 153.433 473.72 132.204 472.072C127.876 471.659 120.662 471.041 118.601 468.774ZM116.746 470.629C109.739 469.805 108.502 469.186 103.968 468.774C101.907 461.148 103.35 464.652 109.945 460.736C114.685 458.263 111.181 458.881 120.868 455.377C134.883 450.225 145.601 442.805 155.906 448.782C157.348 449.4 157.348 450.225 158.997 451.255C155.494 452.286 143.54 450.637 131.998 454.759C127.051 456.614 120.25 459.293 117.571 463.828C115.51 467.125 116.54 467.331 117.158 470.629H116.746ZM170.127 461.973C168.272 457.851 161.471 447.958 156.936 446.515C157.142 445.072 156.318 440.126 156.318 437.859C155.7 430.645 151.784 429.408 151.372 422.195C149.517 396.02 151.372 400.966 148.28 368.402C142.509 329.449 139.005 322.029 137.563 299.358C137.15 297.915 138.593 296.884 135.502 296.472C134.883 297.296 134.471 296.06 134.471 301.006C134.677 316.876 141.066 333.777 142.303 350.059C145.395 371.7 148.898 371.906 147.456 403.027C147.043 413.126 147.868 415.187 150.547 428.996C151.99 431.057 153.639 433.118 153.845 435.591C154.051 438.477 154.257 442.187 154.463 444.866C152.814 444.454 153.433 444.248 151.165 443.836C147.043 443.217 141.685 444.66 137.769 445.691C128.7 448.576 123.342 451.049 114.891 454.759C110.769 456.614 107.472 459.293 102.731 460.736C100.464 456.614 104.174 446.103 105.204 441.775C109.327 421.164 106.853 400.76 103.143 383.654C102.525 372.112 100.052 340.99 99.6397 316.258C99.6397 312.342 100.258 308.838 100.258 304.922C100.258 303.686 100.464 302.861 99.0214 304.716C97.5787 307.808 98.197 324.09 98.197 326.563C95.5176 324.502 93.4566 320.998 91.8078 318.937C89.9529 316.67 89.3346 313.579 86.243 314.197C86.6552 316.876 88.9224 318.525 90.7773 320.792L97.5787 329.036C98.6092 332.746 97.9909 341.609 98.6092 345.731C100.67 359.127 97.7848 370.875 100.258 383.86C103.35 399.523 102.937 400.348 103.556 418.279C103.762 424.462 104.174 436.416 102.113 442.187C100.052 447.958 98.6092 457.438 99.8458 462.797C100.67 469.598 95.3115 468.362 91.1895 468.774C80.6782 469.805 70.7853 471.866 60.068 472.69C54.9154 473.102 55.7398 473.514 38.2211 471.659C37.8089 469.805 37.6028 459.912 39.0455 458.675C41.9309 456.202 62.5412 454.965 67.4877 455.79C73.4646 456.614 71.8158 456.82 75.7318 457.644L78.8233 454.141C81.7088 455.996 82.9454 456.408 85.2125 459.087C87.4796 461.973 89.9529 463.415 92.0139 459.912C91.3956 459.706 91.3956 459.706 90.5712 459.499C88.9224 460.53 88.304 460.118 85.6247 456.614C82.5332 452.904 79.4416 452.492 75.1135 450.225C70.167 447.752 69.1365 447.958 66.6633 447.339C57.1825 445.691 60.4802 445.278 52.6483 444.248C51.6178 444.66 51.8239 444.66 50.9994 446.515C53.4727 448.782 60.6863 448.576 64.3961 449.4C67.6938 450.019 74.083 451.461 76.9684 453.522L75.5257 455.171C68.7243 454.553 68.7243 452.698 58.4191 453.316C55.1215 453.522 52.8544 453.522 49.5567 453.935C47.2896 454.347 42.7553 454.965 40.9004 454.759C42.137 453.316 46.2591 449.606 46.4652 449.194C47.2896 447.958 56.152 418.897 56.152 416.63C60.6863 376.028 54.5032 329.861 60.068 291.938C56.3581 292.762 57.5947 291.113 57.1825 299.358C56.9764 303.067 56.3581 305.747 56.152 309.25C55.5337 338.723 55.7398 377.677 54.2971 407.149C54.9154 419.928 46.8774 434.561 45.0225 447.339C41.5187 450.431 37.8089 453.729 35.5417 458.057C34.7173 459.706 33.4807 472.278 34.7173 474.339C35.5417 475.163 45.0225 475.575 47.2896 475.575C61.3046 475.575 74.083 472.484 87.8918 471.247C114.067 468.98 107.266 473.72 136.738 473.927C140.036 473.514 144.57 475.163 153.226 475.575C160.234 475.782 169.302 474.133 172.806 467.95C172.188 464.034 170.951 462.797 170.127 460.736V461.973ZM79.0294 97.9951C79.4416 99.0256 80.6782 99.2317 81.9149 99.85C86.6552 102.323 89.3346 106.445 93.4566 109.743C96.7543 112.628 95.5176 112.216 97.3726 115.514C101.082 113.453 106.441 112.216 111.594 110.98L125.609 106.651C124.578 102.735 121.899 102.117 122.105 95.934C117.983 95.7279 112.418 102.323 109.945 105.209C107.059 108.506 101.289 114.071 96.3421 112.628C97.5787 110.98 101.495 109.949 103.35 108.506C105.204 107.064 107.472 104.59 109.12 102.529C108.296 97.789 108.502 97.9951 108.296 94.4913C106.029 97.3767 105.823 95.934 103.143 98.4073C101.907 99.4378 101.701 101.499 100.876 102.942C100.67 103.354 99.8458 104.796 99.6397 105.003C98.6092 106.239 99.4336 105.621 97.9909 106.239C97.5787 105.621 97.3726 104.178 98.4031 102.323C99.6397 100.056 99.2275 101.705 100.258 99.4378C96.136 100.262 94.281 101.911 89.7468 99.6439C86.8613 98.2012 84.182 94.4913 82.5332 92.0181C82.5332 91.812 79.8538 97.1706 79.2355 98.2012L79.0294 97.9951ZM77.3806 96.5523C77.7928 95.934 81.0905 90.1632 80.266 89.5448C79.0294 88.5143 77.5867 87.4838 75.9379 85.6289C73.8769 83.3618 72.6402 79.4458 71.1975 76.7665C65.8388 75.736 65.8388 76.3543 63.9839 71.4078C62.9534 68.7285 61.7168 65.6369 61.5107 62.5454C61.3046 58.6294 63.1595 44.8205 64.19 41.1107C65.8388 35.9581 66.8694 35.9581 68.7243 33.0727C70.167 30.5994 70.9914 26.8896 72.0219 24.0041C74.7013 17.615 82.3271 13.0807 87.4796 14.5234C91.6017 14.7295 95.9299 15.1417 99.8458 14.9356C100.464 14.7295 103.35 10.6075 103.762 9.98915C104.38 9.37085 108.708 8.34033 109.739 8.34033C109.739 14.9356 112.006 23.1797 108.09 26.6835C107.678 31.8361 112.83 34.9276 115.922 38.0191L122.929 46.0571C127.464 50.7975 141.272 73.2627 127.876 75.5299C129.525 70.3773 131.586 70.9956 130.143 63.782C128.906 57.3928 117.777 40.6985 112.212 37.813C113.036 40.4924 114.067 40.4924 115.716 42.9656C116.334 43.9961 116.952 45.0266 117.571 46.0571C121.693 53.2707 120.25 53.4768 119.632 54.7135C119.632 54.9196 119.426 54.9196 119.426 55.1257L116.334 69.5529C115.304 69.9651 115.922 69.5529 115.097 69.9651L113.861 70.3773C111.594 81.0946 106.441 102.529 112.006 99.6439L119.426 93.4608C120.868 92.4303 121.28 92.4303 122.929 92.2242C124.372 95.934 123.342 99.6439 125.403 102.942C126.639 104.796 128.082 105.209 128.494 106.857C128.906 109.125 126.227 107.682 125.196 109.125C123.342 111.598 136.12 109.125 137.975 109.743C143.333 117.369 147.456 119.43 151.372 124.376C156.936 131.59 159.41 144.987 160.852 154.879C161.471 158.589 161.264 163.124 161.883 167.04C162.913 171.986 161.677 174.871 162.089 179.818C162.295 183.528 163.325 187.238 163.738 190.741C165.593 202.901 167.035 214.649 167.035 227.015C167.035 231.756 166.417 248.862 167.86 251.954C172.6 261.228 176.928 273.801 164.974 279.984C168.272 284.312 166.623 288.846 163.532 293.587C162.089 295.854 159.203 298.327 156.524 299.151C152.402 300.182 148.28 301.831 145.807 298.121C143.54 294.823 143.333 291.113 141.891 288.64C137.15 297.503 138.593 293.381 124.99 294.411C117.777 295.029 110.769 295.648 103.556 295.648C96.7543 295.648 88.7163 296.06 81.5027 296.266C67.2816 296.678 67.0755 291.113 63.7778 290.289C59.6558 290.495 58.0069 292.144 53.4727 290.907L58.0069 272.358C51.8239 269.266 53.4727 252.778 53.8849 246.183C53.8849 242.267 53.6788 233.199 52.8544 231.344C46.6713 242.061 41.3126 251.954 36.3661 249.687C33.4807 248.45 31.0075 242.885 27.7098 231.962L24.2061 232.992C22.5573 233.611 22.1451 232.58 21.3206 230.725C21.5268 228.252 21.1145 228.664 21.7329 226.603L23.1756 221.657C23.7939 220.214 24.8244 217.535 25.4427 216.092C26.8854 212.176 22.3512 210.527 20.084 211.764C15.962 219.596 11.8399 229.901 12.4582 232.992C12.4582 236.084 13.0765 235.26 13.2826 237.733C12.8704 238.969 11.8399 239.794 9.77889 240.412C8.13007 238.145 7.92397 238.969 7.09956 234.847C4.21412 230.931 2.15309 213.619 9.57279 203.52C14.1071 201.459 11.4277 201.665 18.2291 200.428C18.4352 198.161 17.4047 197.131 19.2596 195.688C21.5268 194.039 25.0305 189.093 26.8854 186.413C28.7403 184.146 28.122 183.116 31.0075 182.085C30.1831 178.169 32.2441 171.574 32.8624 167.246C35.9539 148.078 32.038 140.246 43.7858 122.521C46.053 119.224 46.4652 118.193 49.9689 116.338C55.7398 113.041 55.3276 114.483 59.8619 113.659C64.8083 112.834 68.5182 99.2317 75.1135 95.5218C75.7318 95.7279 76.3501 96.1401 76.7623 96.5523H77.3806ZM58.0069 268.854C58.6252 269.885 61.5107 272.564 63.3656 273.182C77.1745 278.747 95.1054 272.77 107.678 273.595C115.51 274.007 123.548 274.831 130.761 276.068C131.998 276.686 131.38 277.923 130.967 278.129C127.051 278.541 122.311 277.098 117.571 276.48C96.3421 273.595 90.7773 278.953 69.5487 276.686C63.9839 276.068 63.1595 274.625 60.4802 274.007C60.4802 276.068 61.3046 276.892 61.7168 278.747C62.7473 283.694 62.5412 282.663 65.2205 287.404C70.167 287.197 76.3501 285.136 81.9149 284.724C87.4796 284.106 93.2505 282.869 99.0214 284.106C113.861 287.404 111.594 284.93 124.578 284.312C126.433 284.106 131.38 283.694 132.616 283.694L133.028 286.373C120.044 285.549 127.67 286.579 115.922 287.816C96.7543 289.465 100.876 281.839 67.8999 289.258C68.7243 291.732 71.1975 292.968 74.2891 293.999C81.5027 296.06 111.388 293.587 120.044 292.968C123.135 292.762 126.021 292.35 128.906 291.938C131.173 291.732 136.326 292.556 137.975 291.113C140.86 288.434 144.776 283.281 143.127 279.572C140.654 278.747 138.593 279.984 139.005 276.686C141.479 275.862 141.685 277.305 142.715 276.892C144.57 276.274 143.127 274.625 145.188 273.182C146.837 272.77 152.196 272.564 153.433 273.801L149.929 274.213C144.776 274.419 146.013 277.098 146.013 282.457C148.074 282.045 149.104 281.22 151.99 281.22C154.257 281.22 157.142 281.633 159.41 281.839C162.707 281.633 163.738 278.541 166.211 277.098C170.745 274.419 173.425 270.709 170.951 261.847C168.478 252.366 165.18 257.313 166.005 241.03C165.799 224.13 165.18 206.817 162.089 189.711C160.646 181.879 160.028 184.558 160.234 173.635C160.44 166.215 159.203 158.177 158.585 150.963C156.73 153.231 154.463 160.65 153.433 163.536C150.753 170.131 139.83 188.062 140.036 194.039C140.036 194.863 140.036 197.337 140.242 197.955C140.242 213.207 139.211 221.038 140.448 237.114C140.654 238.145 141.272 254.221 141.685 257.931C142.303 263.083 141.685 263.908 140.242 262.877L139.418 252.16C137.975 248.656 138.387 214.237 137.769 210.733C137.769 193.421 137.357 179.612 136.326 155.086C136.738 154.261 137.769 153.025 138.799 154.673C140.86 162.505 138.593 176.932 139.83 186.619C141.272 183.94 143.333 179.406 144.57 176.932C148.692 168.482 148.692 169.925 151.372 162.299C152.196 158.795 155.081 148.284 157.555 146.429C156.524 143.956 156.318 140.658 155.494 137.773L150.547 126.849C143.952 118.399 145.188 121.491 139.624 115.514C132.822 115.102 122.929 116.957 115.922 117.163C111.594 117.369 107.884 115.926 103.556 116.132C97.1665 116.338 97.5787 117.163 95.9299 117.575C95.1054 115.72 93.8688 114.895 92.8383 112.422C92.22 110.567 88.304 108.094 86.6552 106.445C82.9454 103.56 79.4416 100.674 75.7318 97.9951C73.4646 99.4378 66.6633 109.949 65.8388 112.628C69.9609 113.041 74.4952 113.659 78.6172 114.277C81.9149 114.689 87.6857 114.689 89.5407 115.926C89.3346 119.018 87.4796 117.781 84.182 117.575C81.2966 117.369 78.4111 116.957 75.5257 116.544C67.0755 115.72 58.4191 113.659 50.9994 118.399C45.2286 122.109 41.7248 129.117 39.6638 136.124C37.6028 142.513 37.1906 141.689 39.6638 147.46C40.4882 149.315 40.4882 150.757 41.5187 153.025C45.2286 161.063 47.7018 170.337 50.5872 178.787C51.8239 182.085 49.9689 183.94 48.7323 179.406C45.4347 172.398 40.2821 151.788 36.9845 148.902C37.3967 162.711 33.4807 172.81 33.4807 183.734C36.16 185.177 38.2211 187.65 39.8699 189.711C42.137 192.802 46.053 191.566 44.4042 196.306C39.6638 193.833 37.6028 188.886 33.0685 186.413C32.4502 186.001 32.4502 186.207 31.6258 185.589L30.5953 184.97C28.9465 188.268 24.6183 193.627 21.939 195.688C20.2901 197.131 20.2901 198.573 21.5268 199.604C23.5878 200.634 24.4122 201.459 26.061 202.695C30.3892 206.405 29.5648 204.756 33.0685 210.733L38.8394 220.008C40.2821 222.687 41.3126 225.779 42.9614 228.252C42.3431 228.87 42.5492 229.076 41.9309 229.901C39.6638 228.87 38.2211 223.099 36.7784 220.626C36.5723 226.191 34.3051 227.015 30.5953 230.313C34.099 251.954 41.5187 255.252 50.9994 233.199C52.4422 229.695 53.8849 229.901 54.5032 226.603C54.7093 217.741 54.2971 209.703 55.1215 200.84L56.9764 179.2C56.9764 174.665 54.5032 154.055 57.8008 152.406C58.4191 153.437 58.4191 172.398 58.6252 175.078C57.1825 203.107 54.091 210.939 56.9764 247.213C57.3886 255.252 55.7398 263.29 58.6252 268.648L58.0069 268.854ZM59.4497 277.717C60.2741 280.602 60.6863 285.549 62.3351 287.816C61.3046 288.434 56.7703 290.083 56.152 288.434C56.152 288.228 59.2436 278.129 59.4497 277.717ZM145.188 285.136C148.692 283.694 152.402 283.075 155.906 284.106C156.73 289.052 156.318 293.174 155.7 297.296C150.959 297.915 149.31 299.151 147.249 295.235C145.601 291.732 145.188 289.671 145.188 285.136ZM158.173 296.06L158.379 284.312C158.997 284.106 160.852 283.488 164.356 282.045C167.035 286.373 162.295 294.823 158.173 296.06ZM11.2216 204.55C12.6643 202.901 16.7864 200.428 19.8779 201.871C20.7023 202.283 22.1451 203.726 23.3817 204.756C24.4122 205.581 27.9159 208.672 28.7403 209.703C31.4197 212.176 33.0685 214.855 34.099 220.008C34.9234 224.542 32.038 225.985 29.977 227.84C28.5342 229.489 26.061 230.931 25.0305 231.55C23.1756 232.168 22.1451 230.519 23.3817 226.809C23.3817 226.809 25.6488 221.245 27.2976 214.443C27.5037 213 25.2366 210.733 24.4122 210.527C22.9695 209.497 21.7329 209.703 20.2901 209.909C18.4352 209.703 14.7254 217.741 14.1071 220.42C13.0765 221.657 11.2216 229.076 11.0155 231.344C10.6033 237.527 11.2216 236.702 9.57279 237.321C9.16058 232.786 6.48125 226.397 6.27515 222.069C6.27515 220.214 9.985 206.199 10.8094 204.756L11.2216 204.55ZM114.685 112.422C127.257 109.125 119.632 112.216 129.112 112.01C132.204 111.804 137.15 111.804 137.15 111.804L137.975 113.865C129.319 112.834 113.036 117.369 106.647 114.483C109.327 113.865 112.006 113.247 114.685 112.628V112.422ZM84.182 91.3998C85.8308 90.7815 100.464 90.9876 102.525 90.7815C101.907 92.2242 101.495 94.6974 100.258 95.7279C95.9299 99.6439 87.0674 97.789 84.182 91.3998ZM103.143 95.1096C103.556 94.0791 103.35 92.2242 104.586 90.7815C105.823 88.9265 106.853 87.4838 108.296 87.2777C108.09 87.6899 107.884 91.812 107.678 91.812C106.029 93.4608 105.617 94.4913 103.35 95.1096H103.143ZM76.3501 79.6519C77.5867 81.919 78.8233 83.1557 79.2355 86.2472C77.7928 85.4228 79.0294 86.4533 77.5867 85.0106C77.5867 85.0106 76.5562 83.774 76.5562 83.5679C75.7318 82.5373 75.5257 81.7129 74.7013 80.2702C73.2585 77.797 72.0219 77.3848 71.8158 73.6749C74.083 74.9115 75.1135 77.1787 76.3501 79.6519ZM102.731 76.5604C104.998 74.4993 104.792 73.4688 106.647 70.9956C108.708 68.3163 109.533 66.8735 110.975 66.8735C111.8 72.0261 108.296 85.835 105.204 87.4838C104.38 87.896 95.3115 88.9265 93.8688 88.9265C80.6782 89.5448 82.3271 88.9265 80.4721 84.3923C79.2355 79.858 78.8233 81.0946 76.9684 77.3848C75.7318 74.4993 72.6402 70.5834 72.0219 67.904C72.0219 67.904 80.266 72.8505 81.2966 73.4688C86.243 76.1482 88.0979 75.1176 93.8688 75.736C96.7543 76.1482 99.8458 76.3543 102.731 76.7665V76.5604ZM68.5182 73.881C66.2511 72.6444 66.2511 72.0261 65.2205 69.3468C64.3961 67.4918 62.5412 62.1332 63.5717 58.4233C66.4572 61.1027 66.6633 63.5759 67.2816 67.2857C67.8999 69.759 68.9304 71.4078 68.3121 73.881H68.5182ZM76.144 67.904C80.4721 67.904 84.5942 67.904 88.7163 68.3163C94.4871 68.9346 95.1054 68.5224 100.052 65.2247L111.388 57.3928L111.181 61.3088C108.914 63.3698 107.678 65.4308 106.029 67.2857C105.204 68.3163 104.38 69.3468 103.556 70.3773C99.0214 77.1787 98.197 72.4383 91.1895 72.8505C85.8308 73.0566 80.0599 71.82 75.9379 67.6979L76.144 67.904ZM116.334 50.1792C118.395 51.4158 116.128 61.9271 115.304 64.4003C114.067 68.3163 116.746 61.1027 114.891 65.4308C114.891 65.6369 114.685 66.0491 114.685 65.843C114.685 65.843 114.479 66.2552 114.273 66.2552C115.097 59.6599 114.479 62.9576 114.067 60.6904C113.861 59.4538 114.067 56.3623 113.861 54.5074L116.128 53.4768L116.334 50.1792ZM112.418 41.5229L115.716 47.706L114.067 49.767C113.449 49.1487 111.594 44.2022 112.212 41.5229H112.418ZM101.082 29.5689C102.113 28.5384 103.35 27.9201 104.998 27.714C106.235 29.5689 108.296 32.6605 105.617 31.8361L101.082 29.5689ZM77.7928 28.1262C75.7318 27.0957 74.9074 26.2713 77.1745 24.4164C77.5867 24.0041 81.2966 22.9736 81.7088 22.5614C79.8538 26.4774 78.8233 27.9201 77.5867 28.1262H77.7928ZM80.266 30.3933C83.1515 25.2408 84.182 18.6455 90.3651 18.4394C91.8078 18.4394 93.8688 19.676 96.136 20.2943C95.7237 21.737 90.5712 26.6835 88.9224 28.1262C86.8613 29.775 86.8613 28.5384 87.6857 31.0116L89.7468 31.63C90.7773 31.4238 90.9834 30.8055 91.3956 30.1872C92.6322 28.1262 91.6017 28.7445 93.4566 26.6835C94.4871 25.653 95.3115 25.0347 96.3421 24.0041C98.197 22.3553 97.5787 22.3553 100.258 22.1492C101.701 24.4164 100.464 23.5919 101.082 25.0347C101.907 26.8896 101.082 25.2408 102.525 26.6835C99.6397 27.3018 96.9604 27.714 95.7237 30.1872C96.9604 31.4238 99.2275 31.63 100.67 32.0422C102.113 32.4544 108.09 35.9581 108.502 36.3703C110.357 39.0497 111.594 50.7975 111.181 55.1257C105.411 58.6294 101.701 63.3698 95.3115 65.843C93.4566 66.6674 72.0219 66.0491 70.5792 65.0186C69.5487 64.4003 69.3426 65.6369 68.5182 61.3088C67.4877 55.3318 67.2816 53.2707 67.4877 46.8816C67.6938 38.6374 68.9304 34.7215 75.5257 32.6605C75.9379 30.3933 74.9074 31.4238 76.3501 29.5689C77.5867 29.9811 77.1745 31.0116 80.266 30.5994V30.3933ZM108.09 10.1953C108.914 12.4624 107.678 15.1417 108.09 17.8211C108.502 21.3248 109.533 22.5614 107.266 23.798C102.937 25.653 104.38 20.9126 101.289 17.615C104.174 13.2868 104.586 10.8136 108.09 10.1953ZM99.2275 18.2333C101.082 21.3248 95.3115 17.615 93.8688 16.9967C94.281 15.76 96.5482 16.1722 98.197 15.9661C99.0214 16.3783 99.4336 18.2333 99.4336 18.2333H99.2275ZM75.7318 22.9736C76.7623 19.8821 77.5867 18.8516 79.8538 17.615C86.4491 13.699 86.243 17.4089 86.243 17.4089C84.3881 18.2333 82.7393 18.8516 80.6782 19.8821C76.7623 21.9431 79.4416 21.9431 75.7318 22.9736ZM59.6558 75.5299C58.8314 72.0261 60.8924 75.1176 55.1215 69.759C53.2666 67.904 51.8239 67.6979 51.4117 63.782C49.5567 51.6219 54.9154 43.79 62.5412 35.9581C64.8083 33.4849 68.7243 33.4849 69.3426 29.1567C69.7548 25.8591 69.5487 26.4774 67.0755 25.653C65.0144 33.2788 66.8694 27.3018 59.4497 35.9581L55.5337 41.3168C54.091 43.3778 52.6483 44.8205 51.6178 47.4999C49.9689 51.828 48.7323 59.6599 49.5567 64.6064C50.3811 69.3468 55.3276 74.0871 59.8619 75.3237L59.6558 75.5299ZM121.899 66.8735C120.662 68.5224 120.868 68.9346 120.662 72.0261C120.044 80.0641 116.54 84.8045 119.632 86.0411C122.311 81.919 122.311 74.2932 123.754 69.759C124.578 67.2857 124.166 66.2552 121.899 66.8735ZM73.8769 58.0111C73.0524 62.3393 80.4721 60.4843 81.0905 60.0721C84.8003 57.1867 79.6477 57.1867 78.205 57.3928C75.5257 57.3928 75.7318 57.3928 73.8769 58.2172V58.0111ZM98.4031 55.5379C99.6397 56.3623 103.968 55.5379 105.411 54.5074C104.792 51.828 105.204 52.2402 101.289 52.2402C98.197 52.2402 97.7848 53.683 98.197 55.5379H98.4031Z" fill="#111111" fill-opacity="0.8"/>
</svg>
