<svg width="178" height="480" viewBox="0 0 178 480" fill="none" xmlns="http://www.w3.org/2000/svg">
<path fill-rule="evenodd" clip-rule="evenodd" d="M125.502 473.064C137.936 473.989 142.458 469.673 149.394 469.724C144.307 475.325 137.576 476.66 130.486 474.143L125.502 473.064ZM89.3812 453.231C86.7094 451.998 86.0929 450.662 82.4962 449.326C69.5482 446.757 60.6594 437.971 50.3832 449.018C49.6125 449.84 49.3556 443.057 49.5097 442.389C51.7191 433.912 49.5611 426.975 50.5887 415.209C50.897 389.878 52.5412 384.483 51.9246 366.654C51.7191 359.769 52.5926 348.157 51.6677 339.062C50.8456 330.687 51.1025 322.723 50.2291 314.811C50.5887 313.423 49.6125 311.111 50.8456 310.392C52.1301 309.621 52.5926 309.929 54.3909 309.775C54.2368 309.673 53.6202 308.028 53.5688 308.234C53.5174 308.285 50.1777 308.645 49.9208 308.748C49.9722 303.969 49.6639 301.041 50.3318 296.468C50.6915 293.796 50.8456 294.258 50.486 292.203C49.6125 291.998 46.8893 291.073 46.6324 291.432C46.5296 291.586 45.9131 291.998 46.3241 292.46C46.9407 293.179 48.9959 293.488 48.9445 293.744C48.5849 294.926 48.1738 296.776 48.1224 298.06C48.0711 299.191 48.2252 300.886 48.1738 301.914C47.9169 304.74 47.7114 303.044 47.1976 305.151C46.3241 308.696 47.8655 316.969 47.0434 320.103C46.7865 321.028 44.8855 321.233 44.423 320.206C43.3954 311.368 44.1147 301.811 44.3203 295.646C44.6285 291.227 44.6285 287.322 44.1147 282.903C43.2413 275.299 44.3716 274.014 42.7275 270.161C40.6208 265.279 41.0319 255.877 40.6722 250.636C40.107 243.083 38.1032 233.577 38.0004 226.436C37.8977 220.732 37.4352 218.78 37.949 215.748C37.0242 210.096 36.2535 206.911 35.6369 202.595C34.5579 195.093 33.0165 187.335 34.1982 179.782C37.0756 179.319 36.9214 181.683 42.6761 180.501C42.4706 188.722 46.3241 193.86 50.486 200.18C58.3986 212.203 57.0627 202.646 55.8809 219.396C55.3158 227.463 60.608 231.676 63.1256 238.818C64.924 243.854 67.3389 248.324 70.2676 252.28C71.809 254.387 71.7576 255.568 74.2239 255.517C74.378 252.948 73.1963 252.743 72.0145 251.201C69.3941 247.913 70.8841 248.838 71.0897 245.601C68.5206 244.111 66.2085 243.751 66.8764 239.486C67.082 238.305 68.9831 234.554 66.6709 234.965C63.845 235.427 68.8803 234.143 65.9002 235.273C65.7461 235.324 65.5405 235.427 65.3864 235.53L64.1019 236.044C61.7897 228.337 53.8771 220.989 59.94 212.306C61.7897 214.875 64.1019 218.626 67.6472 218.677L67.3389 215.594C63.7422 213.179 62.098 212.357 60.3511 208.709C60.4025 208.555 60.5566 208.093 60.608 208.195C60.6594 208.298 60.8135 207.784 60.8649 207.681C61.7384 206.346 61.1218 207.527 61.687 206.551C62.1494 205.78 62.2522 207.322 62.2522 204.65C59.4776 204.65 60.5566 205.729 57.9876 206.5L49.3556 195.145C48.1224 193.449 42.933 184.098 45.1937 180.398C45.0396 179.782 45.0396 178.857 45.2451 178.24C45.8617 174.798 47.249 166.988 50.0749 164.881C53.3119 167.553 55.5213 178.343 56.1892 178.754C57.0113 179.216 59.2207 178.446 59.8887 177.315C62.0466 173.821 58.0389 160.565 55.624 158.715C54.1854 157.328 52.1815 154.708 52.1301 152.653C52.1815 151.728 55.9323 150.392 56.6003 150.289L59.1179 157.893C58.7069 163.134 70.73 206.808 72.4256 217.495C73.1963 222.428 74.2239 227.823 75.046 233.064L77.7692 248.375C78.7968 253.513 79.7216 258.754 80.441 263.841C80.9548 267.437 80.3896 279.255 81.8796 281.053C84.8083 280.18 83.2669 276.326 83.1128 273.757C82.4448 264.92 81.3145 255.928 79.6189 247.604C82.0852 246.423 85.5791 246.577 88.7647 246.423L89.3812 250.276C86.1956 249.608 92.0017 251.458 88.3022 249.917C86.4525 249.146 87.2746 249.403 84.9625 249.968C81.3658 250.841 82.4448 249.249 81.1089 252.177L89.2785 252.588C90.0492 261.631 92.9779 300.064 92.1044 306.538C85.9387 307.72 79.0023 305.202 72.7852 306.384C72.6311 306.898 72.7339 308.183 73.0935 308.594C75.9195 309.107 88.8161 308.028 92.5155 308.08L92.4641 311.933C88.8161 313.783 86.247 313.526 81.5714 313.886C82.3421 318.921 84.2945 315.89 89.4326 315.581L90.8199 318.613C91.4365 320.771 91.2823 320.822 91.231 323.134C91.0768 331.458 93.5431 340.398 93.6459 348.773C94.0055 374.104 97.0884 394.554 91.7961 419.319C88.9188 432.781 89.2785 439.666 89.3812 453.231ZM105.412 467.772C106.286 469.467 106.645 469.827 108.289 470.906C113.53 471.009 110.55 471.163 118.668 471.779C123.087 472.088 126.581 476.506 134.288 477.072C145.643 477.072 145.952 475.068 153.556 469.93C154.121 470.084 154.07 467.412 151.295 462.89C147.853 457.187 141.224 449.018 137.885 446.346C137.474 439.307 138.45 432.73 138.399 425.691C138.399 419.114 138.039 411.201 137.371 404.933C136.703 398.664 137.063 390.289 137.165 383.815C137.576 364.65 135.316 341.118 133.826 321.901C133.363 315.838 132.181 309.21 131.514 303.044L129.972 288.247C129.458 284.753 129.356 285.267 127.352 284.856C126.016 287.733 128.944 299.499 129.612 304.175C132.541 324.522 133.928 345.691 134.956 366.294C135.675 380.835 134.905 394.759 136.086 408.838C137.011 419.782 136.395 431.034 135.881 441.978C135.573 448.093 134.853 446.243 139.683 451.946C142.149 457.701 149.6 460.167 150.319 467.361C143.023 468.44 136.652 471.265 128.944 471.471L110.088 468.902C108.546 468.851 106.491 467.258 108.598 465.614C110.088 463.25 110.396 459.037 112.348 457.393C114.866 455.851 117.795 456.725 120.929 455.903C123.395 455.235 126.016 453.899 128.277 453.693L136.754 462.068C139.837 461.298 141.122 460.681 140.145 457.65C139.221 459.14 139.169 459.91 137.165 460.116C133.158 457.393 132.747 455.183 129.51 451.792C125.296 451.278 124.012 452.82 120.775 454.053C113.325 456.879 111.526 451.535 108.289 461.349C107.878 462.582 107.159 464.535 106.183 465.408L105.412 467.772ZM82.0338 450.97C84.3459 450.97 84.9111 451.484 89.2271 455.286C89.3299 456.108 87.6343 473.115 87.4802 473.167C81.3145 472.499 57.1655 476.815 49.2014 473.629C46.3755 472.499 45.5534 470.392 48.3793 466.847C49.4583 466.179 51.0512 465.562 52.644 465.562C57.5251 464.843 74.2753 463.301 78.7454 465.357C82.3935 467.001 80.8006 469.416 85.0653 468.953C84.2432 464.791 78.1802 463.25 74.4808 463.147C69.2913 462.993 64.3588 463.507 58.861 463.147C56.0351 458.523 58.0389 458.574 52.644 454.053C50.9998 452.511 50.7429 451.946 51.8219 450.867C52.1815 450.097 55.3671 447.528 56.2406 446.911C60.3511 444.188 67.2361 447.219 71.5007 448.195C72.9394 448.555 79.1051 449.531 79.9272 450.405C82.2393 454.207 80.5951 453.95 81.8283 456.93C82.6504 456.776 83.1642 456.879 83.3697 456.365C82.8045 455.389 82.2393 452.357 82.0338 451.021V450.97ZM30.8585 139.705C30.6016 143.507 32.6568 147.155 33.8386 150.083C28.5463 160.719 17.4481 156.146 25.5663 167.091C27.3132 169.454 29.6253 169.762 32.7596 170.996C32.7596 176.442 31.5778 180.141 31.8861 184.92C32.0916 188.208 32.1944 191.753 32.6568 194.836C33.5817 200.642 34.8662 207.784 35.4314 213.282C35.791 216.673 35.2259 220.27 35.5855 223.815C35.8938 226.692 36.5618 229.981 36.9728 233.064C37.8977 239.949 38.3087 245.292 38.7198 252.588C39.2336 262.351 41.2374 269.544 41.4943 277.816C41.5971 280.848 42.2136 284.342 42.4706 287.579L42.6247 307.617C42.6247 311.111 43.0357 314.143 43.0871 317.637C43.1385 320.771 42.7788 321.593 44.7313 322.518C46.6838 322.004 47.66 322.98 48.0197 321.182C48.6363 318.048 47.7114 312.139 48.0711 310.341C50.9484 315.17 49.818 415.158 48.328 431.908C48.0711 434.528 48.5335 438.536 48.2252 440.591C47.66 444.804 47.1976 443.674 48.5849 448.966C50.6915 457.084 52.9522 454.361 55.8296 460.527L56.3434 461.657C55.2644 462.377 53.9285 462.942 52.3357 463.301C48.3793 464.226 50.7942 464.124 47.9683 465.203C45.6048 467.566 43.8578 470.803 43.8065 471.522C46.8893 479.075 56.0865 477.226 63.8964 476.301C70.5759 475.479 85.5791 475.838 89.1757 475.068C89.1757 475.068 91.0768 453.488 90.8199 450.045C90.4602 445.164 90.5116 439.615 90.974 434.734C91.8475 425.331 94.4166 417.521 95.5469 408.838C97.9618 390.443 95.3414 369.994 95.0845 351.908C97.9618 356.326 98.3729 369.788 99.2464 376.365C103.1 404.316 104.59 423.122 102.74 450.765C102.637 452.511 102.381 454.721 102.946 456.365C103.511 456.571 104.333 456.571 105.104 456.622C104.693 453.59 104.641 452.614 104.641 450.816C104.59 448.195 105.052 444.342 105.155 441.413C106.44 409.865 101.764 379.807 97.448 348.928C96.2149 340.09 95.4956 331.098 93.8514 322.518C93.3376 319.795 92.2586 317.482 92.0017 314.759C95.2387 313.064 97.1397 313.475 99.5033 312.961C99.5546 312.396 99.2464 311.625 98.9895 311.163C97.3967 311.111 95.4442 311.933 94.2624 311.163L93.8514 308.285C99.9143 308.439 103.665 310.186 107.056 310.289C107.056 309.673 107.262 309.159 106.799 308.902C103.254 307.926 97.5508 306.692 94.0055 306.641C93.5431 292.82 92.5155 266.718 92.053 252.845L101.456 251.561C101.147 258.446 100.839 267.078 101.404 273.86C101.713 277.765 102.689 283.057 102.535 286.5C105.566 286.397 117.332 287.938 120.004 286.14C119.799 285.369 120.415 284.753 119.747 283.828C116.408 283.828 107.673 285.061 104.487 284.29C103.819 273.603 102.689 263.481 103.305 252.691C103.614 247.142 103.562 240.617 103.254 235.068C102.894 228.491 102.278 225.202 102.432 218.266L105.412 216.879C106.286 214.104 105.926 213.796 107.313 210.662C107.724 209.737 107.93 209.223 108.392 208.195L110.756 205.523L111.989 209.942C114.095 215.902 120.056 223.61 120.056 229.929C118.309 230.957 115.483 235.068 114.352 237.123C107.416 249.66 114.815 236.763 109.882 255.209C109.214 257.726 109.111 257.881 108.187 259.833L107.365 263.276C107.57 264.56 107.519 263.995 107.981 264.766C109.266 263.944 109.471 263.07 109.985 261.529C110.499 259.987 110.858 258.651 111.167 257.264C111.835 254.335 112.605 251.561 113.376 248.735L115.997 240.668C116.87 235.838 117.538 236.506 120.004 233.423C124.526 227.874 120.724 224.123 118.052 218.163C115.842 213.282 115.02 208.144 112.297 203.879C111.578 202.749 112.348 204.29 111.629 202.595C114.301 198.125 116.562 194.888 117.076 189.339C117.743 181.837 112.451 174.592 109.214 168.94C106.953 164.984 102.586 159.332 102.792 154.399C102.894 151.985 104.282 149.57 105.463 147.977C108.187 150.597 104.128 159.435 112.297 164.419C114.918 165.703 117.487 162.209 118.977 164.213C119.593 166.268 119.696 166.012 120.929 167.759C122.162 168.838 126.17 169.249 128.636 167.861C129.51 170.173 131.102 171.766 132.49 175.671C133.723 179.165 134.442 181.786 135.418 185.228C136.806 190.109 139.118 200.591 139.169 205.832C145.438 233.218 145.284 255.62 147.082 266.924C145.489 267.849 142.252 268.465 140.916 269.39C139.632 270.263 137.885 272.576 138.296 274.888C139.323 274.579 140.659 274.682 140.197 273.86C139.786 273.089 140.813 272.319 141.738 272.01C143.588 270.931 144.718 270.366 147.339 269.955L148.623 273.963C144.513 276.994 137.32 277.303 137.525 283.622C137.576 286.192 136.806 286.859 136.292 289.172C135.624 292.152 137.063 310.906 140.505 313.475C143.126 315.119 143.588 313.989 145.489 312.499C146.311 314.245 147.133 317.791 148.88 321.49C150.987 322.929 151.244 323.494 154.121 323.905C154.789 318.561 154.584 312.807 154.224 307.412C153.607 298.42 152.014 292.049 153.659 288.915C151.912 289.685 152.066 289.942 150.833 291.073C150.679 294.721 152.066 302.325 152.528 305.562C153.145 309.827 154.378 317.431 152.426 320.925C149.702 319.692 147.75 313.886 147.339 311.111C146.774 307.412 147.031 304.946 146.619 302.12C146.157 298.523 146.465 300.27 144.564 299.602C142.715 303.044 146.619 310.135 142.149 312.139C139.169 306.692 134.802 293.128 139.632 286.346C142.149 289.069 147.133 288.658 151.809 288.401L154.172 285.729C151.809 277.662 150.524 275.556 149.754 268.722C150.011 268.722 141.019 203.828 143.382 210.97C143.28 211.073 141.584 198.69 140.557 199.255C136.806 174.592 131.925 170.636 130.846 165.601C134.031 164.367 133.98 163.545 135.11 159.589C138.039 149.672 131.359 143.969 121.443 142.222C121.905 139.705 123.755 138.626 123.395 135.697C122.214 125.729 118.155 118.741 108.392 118.793C108.855 113.552 108.546 112.73 109.625 106.358C109.163 93.359 101.045 92.5883 91.9503 90.3789C90.5116 90.1734 86.1956 89.8651 85.9901 88.4778C85.5791 86.1143 84.3973 84.8298 82.5476 82.6718C77.204 78.0989 72.5797 84.2132 68.572 85.0867C62.8687 86.3712 63.6395 81.8497 51.4108 89.2485C48.6363 90.8927 45.3479 92.7424 42.9844 95.1573C42.3164 95.8253 40.0557 98.4971 39.5932 99.2678C38.2573 101.683 39.3877 102.299 38.0004 103.995C32.3485 110.828 32.2458 114.425 34.1469 114.579C37.1783 114.836 40.5181 112.473 41.3916 109.749C43.1385 110.777 42.7788 110.88 44.8341 110.263C46.17 117.816 42.5733 115.299 39.8501 118.947C37.6408 121.875 39.2336 124.958 41.0319 127.63C40.9291 127.733 40.7236 127.733 40.6722 127.938C40.6208 128.144 40.4153 128.195 40.3126 128.247C39.8501 128.555 39.5932 128.76 39.1822 129.017C37.7435 129.428 38.5142 129.12 36.9214 129.685C35.6883 130.302 30.7557 138.626 30.653 139.91L30.8585 139.705ZM139.683 281.413C140.968 279.409 145.797 276.481 149.291 276.275C150.062 278.639 151.141 281.567 152.169 284.136C150.37 287.271 144.205 287.322 140.659 284.136C139.837 283.417 140.3 282.441 139.683 281.362V281.413ZM57.0113 134.464C52.9009 130.199 49.3556 127.784 47.8142 118.998C50.3318 121.207 57.782 121.413 62.1494 121.721C63.5367 121.516 69.0344 122.235 70.73 121.927C77.0498 120.899 75.5598 119.049 75.9708 109.647L77.9233 109.03C76.8443 128.144 92.9265 117.251 99.9143 115.247C100.891 119.46 101.096 120.437 100.736 125.112C99.0922 129.017 96.1635 130.353 93.132 132.563C86.3498 137.598 62.1494 140.013 56.9599 134.464H57.0113ZM52.8495 149.878C52.3871 148.748 50.1263 143.661 49.818 142.068C49.2528 139.242 50.0749 138.78 51.3594 136.93C54.1854 140.578 51.4622 144.021 53.1064 147.052C57.2169 149.416 53.9285 146.435 55.0075 144.945C57.8334 144.277 57.8334 143.507 58.2958 142.325C58.9124 139.448 58.1417 139.602 57.6279 137.187C59.7859 137.752 65.335 140.527 68.6234 141.606L69.7024 147.823C68.0068 148.028 66.8251 147.771 65.1809 147.566C63.5881 147.669 57.6793 148.182 56.1379 148.902C55.8296 149.004 52.9009 150.032 52.8495 149.878ZM70.2676 163.083C67.6985 159.486 63.177 156.455 60.0942 157.585C59.2207 154.502 58.1417 151.933 57.7307 149.775C64.5643 147.052 76.5874 152.036 78.4371 154.759C76.0222 159.332 73.4018 161.13 70.2676 163.031V163.083ZM83.3697 156.095C92.8751 161.285 88.8161 171.355 99.1436 169.043C101.661 177.47 101.507 200.899 101.456 210.764C101.353 221.708 99.8116 222.222 99.7088 223.918L100.582 239.075C101.404 243.391 101.815 243.186 101.815 248.272C99.5546 250.173 96.5232 251.098 92.6696 250.739C91.2823 248.683 90.8713 248.529 90.974 246.371L97.3967 246.936L97.2939 243.288C94.3138 244.059 94.3652 244.265 90.8199 244.111C88.8674 239.229 89.3812 231.728 89.6895 225.819C90.4089 211.432 87.1719 207.27 85.6818 198.895C85.1166 195.607 84.8597 193.449 83.9349 190.161C80.1841 176.853 82.0338 167.399 82.4962 158.921C81.6741 159.127 81.2117 158.972 80.7493 159.332C79.9786 167.604 80.6465 181.58 80.6979 182.608C80.9548 190.88 88.6619 209.994 88.2509 222.582C88.1481 226.333 87.6857 230.084 87.8912 233.834C88.0453 236.866 88.9702 241.49 88.5592 244.008C83.2155 246.423 81.5714 242.723 80.441 242.158C75.8681 239.795 77.9747 236.249 75.7139 225.408C72.5797 210.353 69.9593 194.631 65.6433 180.09C59.94 160.873 65.7974 170.687 63.4853 164.265C62.6632 162.055 61.8411 162.107 61.2759 159.435C65.5919 160.617 66.414 162.055 70.1648 165.087C75.5598 163.802 76.2791 158.613 83.4211 156.095H83.3697ZM61.0704 123.057C62.6632 125.575 68.3151 130.405 73.7101 129.377C76.0222 128.915 78.4371 127.168 80.6465 126.243C82.9586 125.318 85.7332 124.701 88.2509 123.725L87.5829 121.516C85.0653 121.978 82.3935 122.8 80.0813 123.776C75.5598 125.678 70.2162 130.507 62.9201 122.852C61.9953 122.903 61.687 123.006 61.1218 123.057H61.0704ZM101.302 169.043C103.203 168.272 105.052 168.015 106.953 168.786C109.163 175.209 117.435 183.276 114.147 192.421C112.914 195.813 105.412 211.946 102.894 214.207C103.1 206.089 103.357 199.563 102.946 191.342C102.586 184.2 101.353 175.671 101.302 168.992V169.043ZM56.9599 167.347L58.2958 171.407C58.861 175.414 58.0903 175.157 57.2682 175.979C53.5688 166.577 53.5688 168.17 56.9086 167.347H56.9599ZM102.535 160.154L104.436 164.933C103.203 164.265 101.558 167.296 101.147 166.063C100.325 163.545 102.175 160.462 102.483 160.103L102.535 160.154ZM125.296 164.984C125.964 164.727 125.913 164.367 127.968 166.217C125.605 167.245 125.862 166.32 125.296 164.984ZM122.162 157.791C123.087 160.206 124.628 163.751 123.806 166.525C123.19 166.32 121.34 166.731 121.237 162.62C121.186 160.668 121.648 159.332 122.162 157.791ZM97.9618 165.755C97.2425 163.905 97.2939 161.798 96.4204 159.743C95.6497 157.842 96.369 155.633 96.7801 153.32C99.5033 155.427 100.12 154.656 100.377 158.048C100.48 159.486 98.7326 164.676 97.9618 165.806V165.755ZM51.3081 155.581L54.4937 160.154C55.3158 161.696 56.1892 163.802 56.4461 165.755C53.055 165.241 50.5887 159.846 50.0235 157.225C49.9208 155.941 51.1025 155.89 51.2567 155.581H51.3081ZM33.1706 168.94C28.8546 166.988 26.337 166.68 25.669 160.771C28.7519 157.431 31.0126 158.253 36.3049 150.238C38.7711 154.605 35.0717 165.241 33.1706 168.94ZM38.617 160.719C40.3126 155.838 39.3877 155.838 39.4391 150.649L50.1777 152.704C46.8379 155.684 38.617 160.668 38.617 160.668V160.719ZM37.8977 162.826C41.0833 162.107 45.6562 158.048 47.249 158.048C47.4545 159.024 48.2766 161.901 48.2766 162.775C48.1738 165.909 47.3004 162.826 45.5534 169.454C44.7313 172.588 44.3716 176.288 43.0357 178.497C40.6722 178.703 38.3087 178.137 34.7634 176.647L34.9176 172.075C36.048 168.221 36.9728 165.446 37.8977 162.877V162.826ZM104.128 145.922C102.637 148.08 102.637 151.214 100.017 153.68C100.582 153.937 96.369 148.799 95.3928 145.459C97.4994 140.835 101.97 143.558 104.128 145.922ZM93.9541 165.138C90.7685 159.538 89.2271 158.561 93.8514 149.004C96.3177 151.933 94.2624 153.68 94.2624 157.688C94.2624 160.822 95.2387 163.083 93.9541 165.189V165.138ZM42.1109 141.297C44.1147 140.064 46.9921 139.448 49.4583 145.305L51.0512 149.672C51.2567 152.139 49.6125 150.957 49.6125 150.957L42.9844 149.313L37.8977 147.206C39.2849 142.325 38.2059 140.321 42.1109 141.297ZM92.2586 147.617C91.4365 151.008 89.8951 154.348 89.5354 157.636C87.0177 155.581 87.7884 155.478 86.0415 153.68C87.7884 150.495 89.8951 148.593 92.2586 147.617ZM117.384 156.352C116.202 156.249 116.459 152.858 116.356 151.317C116.048 148.337 115.483 147.925 114.301 148.08C112.811 148.285 113.273 149.57 113.53 151.933C114.25 158.15 112.657 154.502 112.4 153.68C111.424 150.443 112.708 149.364 110.447 149.107C109.985 149.261 109.728 149.724 109.779 150.751C110.602 153.886 111.218 159.281 110.293 159.229C109.368 159.075 109.163 156.866 109.06 156.044C108.392 150.906 106.645 138.369 108.084 133.899C108.598 132.306 108.238 133.333 109.111 132.306C109.009 135.594 109.677 143.764 110.704 146.281C117.384 147.463 117.076 144.534 120.158 144.277C134.083 143.096 136.857 163.494 130.64 162.518C130.435 160.411 130.846 156.712 130.64 154.605C129.612 144.123 125.964 151.368 126.375 155.478C126.632 157.945 127.917 162.209 127.763 163.186C125.399 161.901 124.885 158.459 124.937 155.067C124.937 151.162 125.862 147.771 124.166 147.412C122.111 147.309 122.368 153.577 121.34 153.937C120.004 154.194 120.929 150.135 119.388 150.186C115.945 149.981 118.72 155.941 117.384 156.249V156.352ZM85.3222 138.369C86.4012 140.424 87.6857 146.076 87.326 148.645C85.7846 149.775 84.6542 150.597 82.3421 154.194C78.3344 152.19 79.2078 150.597 71.6549 148.85C70.73 144.586 71.6035 144.843 71.2438 141.708C74.0184 141.657 83.8835 139.807 85.3222 138.369ZM112.194 144.483L111.681 137.29C114.609 139.139 114.147 140.475 117.487 142.787C115.791 144.791 114.044 144.534 112.246 144.483H112.194ZM35.5855 146.333C32.1944 142.839 33.7358 134.053 37.8977 131.997C39.9529 134.926 37.949 141.452 35.5855 146.333ZM98.4756 132.203C97.4994 134.155 97.8077 137.906 96.8828 139.859C95.7011 138.934 95.1873 137.084 94.9304 135.08C96.3177 133.847 97.1397 133.385 98.527 132.152L98.4756 132.203ZM87.8398 137.238C89.6381 136.879 91.1282 136.262 92.2586 136.005C93.132 138.163 93.4403 140.064 94.3652 142.222L92.31 145.408C91.4365 145.613 90.563 146.127 89.7409 146.384L87.7884 137.187L87.8398 137.238ZM55.7782 138.009C58.1931 142.736 54.6478 143.25 54.4937 143.301C54.2881 140.886 54.1854 138.317 52.5926 135.645C52.7981 135.389 53.1064 134.823 53.3119 134.566C53.8771 135.594 54.8533 136.211 55.7782 138.009ZM45.9644 132.203C49.1501 132.1 48.4821 132.922 50.0749 130.764L51.7191 133.282C50.6401 135.543 48.8418 137.238 47.9683 139.756C46.4783 138.574 44.7313 138.985 42.6247 139.037C43.1899 135.543 44.2689 133.231 45.9644 132.203ZM42.7275 129.891C43.8578 129.994 44.1147 131.432 43.4982 132.306C41.9567 134.31 41.1347 136.313 40.775 138.317C40.1584 136.879 39.1822 133.076 41.3402 129.891L42.7788 129.942L42.7275 129.891ZM103.922 140.116C103.716 141.811 103.819 140.681 103.254 141.452C98.527 137.958 100.48 128.606 103.357 124.804C103.203 131.021 102.946 134.001 103.922 140.116ZM113.839 121.978C116.408 123.931 114.712 123.52 114.866 127.116C117.281 126.962 118.874 125.626 119.953 128.504C121.648 133.025 121.751 137.238 119.49 140.835C115.637 139.859 116.87 138.574 114.095 136.211C113.479 134.978 115.894 135.337 116.819 133.899C117.127 132.665 114.609 132.717 115.688 131.381C117.949 129.942 118.052 131.021 117.898 128.658C114.918 127.476 113.479 133.179 111.732 133.025C111.218 129.069 110.961 124.958 113.89 121.978H113.839ZM45.9131 121.207C46.2727 122.132 46.6324 123.006 46.9921 123.828C47.8142 125.729 48.5335 127.836 49.3556 129.685L46.6838 129.737C44.3203 127.27 44.9368 124.804 45.7589 122.081C45.1424 121.207 45.091 120.385 44.8341 120.539C43.9606 121.053 44.6285 126.089 43.344 126.962C41.186 122.595 39.9015 120.745 43.4468 118.484L44.1661 118.022C45.0396 118.947 44.5258 117.508 45.8617 121.105L45.9131 121.207ZM105.361 123.776C108.187 122.184 107.776 120.488 111.629 121.105C107.93 124.753 110.55 128.966 107.519 130.559L105.772 136.365C105.618 131.535 105.361 128.606 105.361 123.776ZM104.333 114.425C104.23 118.536 106.029 116.84 105.104 119.358C102.637 117.046 102.226 115.556 104.333 114.425ZM102.586 105.845C107.93 107.797 107.056 107.489 107.056 111.959C102.586 109.544 102.689 108.259 102.586 105.845ZM35.8424 112.986C35.8938 110.469 38.7198 106.512 40.107 105.433C41.5971 108.362 37.538 112.216 35.8424 112.986ZM98.2701 105.536C97.1911 104.714 94.4166 101.991 94.3138 101.169C94.211 100.244 94.3138 96.4418 94.2624 96.3905C96.4718 97.2126 99.0408 103.738 98.2187 105.536H98.2701ZM67.2361 99.1136C69.0344 98.4457 72.4256 98.8054 72.8366 97.3667C75.2515 96.7501 75.8681 98.5485 77.204 98.2402C78.283 97.9319 77.7178 97.5722 79.3106 97.7777C79.3106 97.7777 80.5951 98.2916 80.852 98.3429C84.0376 99.0623 83.2155 96.9043 87.2232 101.785C92.3613 108.054 94.8276 105.382 97.2425 108.876C100.685 113.757 97.0884 113.552 92.4127 115.607C92.3613 115.607 81.3145 122.595 80.852 113.192C80.6465 109.39 80.6465 109.441 80.9034 106.204C77.5123 105.69 75.8681 107.026 72.888 108.054L72.9394 117.97C67.8013 119.82 54.2881 121.516 50.0235 118.022C48.6363 116.891 47.66 113.757 47.9683 111.188C50.5887 108.568 49.1501 104.817 51.7191 102.197C58.9638 93.6673 61.8411 101.066 67.2361 99.1136ZM63.6908 108.003C61.3787 109.03 61.8411 110.777 61.7897 112.216C64.7698 112.73 65.6433 108.773 63.6908 108.003ZM53.8771 96.4418C54.134 93.7187 54.7506 94.438 56.5489 94.0783C55.9323 96.1849 56.0865 96.1849 53.8771 96.4418ZM106.491 100.861L105.977 103.687C103.357 99.6788 99.606 99.0623 97.6536 94.4894L102.381 95.4656C104.076 96.8529 106.388 98.3429 106.542 100.861H106.491ZM90.9227 94.1297L91.231 97.0584C88.6619 96.6987 87.7884 95.4142 87.8912 92.3314L90.9227 94.1297ZM67.0306 89.5568C67.3389 88.9402 67.1333 87.7585 69.1886 89.8137C70.8328 91.4065 71.0383 94.0783 68.2123 95.8253C66.0544 96.3905 65.1295 95.517 65.9516 93.9242C67.5444 92.6397 66.8764 92.5369 66.9792 89.6082L67.0306 89.5568ZM61.2246 88.4264C58.1931 91.3551 57.4224 90.4303 52.5412 92.7938C50.1777 94.9518 50.1777 95.4142 45.4506 97.4181C50.486 91.0468 53.3633 90.5844 61.1732 88.4264H61.2246ZM75.7653 84.727C80.2868 82.7745 84.8083 85.806 81.4172 91.4579C79.9786 88.375 81.0062 87.1933 78.2316 86.0115C76.125 87.5529 76.4847 89.1458 75.7653 91.6634C73.1449 88.1695 74.2239 87.0905 75.7653 84.727ZM66.8251 286.551C66.5682 283.468 57.4224 288.247 53.723 287.887C49.7153 281.619 49.3556 259.011 49.3042 249.66C49.3042 242.929 48.328 237.431 47.7628 230.854C47.249 224.534 48.0197 216.622 46.6324 210.456C41.9567 211.792 43.4982 214.464 44.423 218.985L47.6086 249.608C47.8655 261.323 47.4545 280.591 51.7705 290.251C56.1379 290.867 56.3948 289.891 59.9914 288.915C62.766 288.144 66.9278 289.223 66.7223 286.551H66.8251ZM135.83 281.978C139.067 280.54 136.138 278.587 135.932 271.497C135.83 267.129 135.47 262.813 135.367 258.343C135.059 245.344 133.672 220.784 131.462 208.452C130.743 204.393 130.846 199.974 130.691 195.864C130.537 191.702 132.747 187.54 130.846 184.303C130.64 184.457 129.356 183.635 128.893 188.927C128.431 193.757 129.253 203.263 129.767 208.093C130.64 216.519 131.668 223.764 132.181 232.704L133.877 270.212C133.98 273.089 133.312 280.694 135.881 281.927L135.83 281.978ZM88.9188 110.006C89.9464 109.236 89.9464 110.931 90.2547 108.259C90.6144 105.177 89.6895 106.307 89.5354 105.999C87.9426 106.358 87.6343 105.536 87.326 107.591C86.8636 110.88 87.6857 109.287 88.9188 109.955V110.006Z" fill="#111111" fill-opacity="0.8"/>
</svg>
